<svg width="304" height="87" viewBox="0 0 304 87" fill="none" xmlns="http://www.w3.org/2000/svg">
<path d="M129.617 38.6797V59H125.258V33.6406H129.383L129.617 38.6797ZM128.727 45.3594L126.711 45.2891C126.727 43.5547 126.953 41.9531 127.391 40.4844C127.828 39 128.477 37.7109 129.336 36.6172C130.195 35.5234 131.266 34.6797 132.547 34.0859C133.828 33.4766 135.312 33.1719 137 33.1719C138.188 33.1719 139.281 33.3438 140.281 33.6875C141.281 34.0156 142.148 34.5391 142.883 35.2578C143.617 35.9766 144.188 36.8984 144.594 38.0234C145 39.1484 145.203 40.5078 145.203 42.1016V59H140.867V42.3125C140.867 40.9844 140.641 39.9219 140.188 39.125C139.75 38.3281 139.125 37.75 138.312 37.3906C137.5 37.0156 136.547 36.8281 135.453 36.8281C134.172 36.8281 133.102 37.0547 132.242 37.5078C131.383 37.9609 130.695 38.5859 130.18 39.3828C129.664 40.1797 129.289 41.0938 129.055 42.125C128.836 43.1406 128.727 44.2188 128.727 45.3594ZM145.156 42.9688L142.25 43.8594C142.266 42.4688 142.492 41.1328 142.93 39.8516C143.383 38.5703 144.031 37.4297 144.875 36.4297C145.734 35.4297 146.789 34.6406 148.039 34.0625C149.289 33.4688 150.719 33.1719 152.328 33.1719C153.688 33.1719 154.891 33.3516 155.938 33.7109C157 34.0703 157.891 34.625 158.609 35.375C159.344 36.1094 159.898 37.0547 160.273 38.2109C160.648 39.3672 160.836 40.7422 160.836 42.3359V59H156.477V42.2891C156.477 40.8672 156.25 39.7656 155.797 38.9844C155.359 38.1875 154.734 37.6328 153.922 37.3203C153.125 36.9922 152.172 36.8281 151.062 36.8281C150.109 36.8281 149.266 36.9922 148.531 37.3203C147.797 37.6484 147.18 38.1016 146.68 38.6797C146.18 39.2422 145.797 39.8906 145.531 40.625C145.281 41.3594 145.156 42.1406 145.156 42.9688ZM178.402 59.4688C176.636 59.4688 175.035 59.1719 173.597 58.5781C172.175 57.9688 170.949 57.1172 169.917 56.0234C168.902 54.9297 168.121 53.6328 167.574 52.1328C167.027 50.6328 166.753 48.9922 166.753 47.2109V46.2266C166.753 44.1641 167.058 42.3281 167.667 40.7188C168.277 39.0938 169.105 37.7188 170.152 36.5938C171.199 35.4688 172.386 34.6172 173.714 34.0391C175.042 33.4609 176.417 33.1719 177.839 33.1719C179.652 33.1719 181.214 33.4844 182.527 34.1094C183.855 34.7344 184.941 35.6094 185.785 36.7344C186.628 37.8438 187.253 39.1562 187.66 40.6719C188.066 42.1719 188.269 43.8125 188.269 45.5938V47.5391H169.332V44H183.933V43.6719C183.871 42.5469 183.636 41.4531 183.23 40.3906C182.839 39.3281 182.214 38.4531 181.355 37.7656C180.496 37.0781 179.324 36.7344 177.839 36.7344C176.855 36.7344 175.949 36.9453 175.121 37.3672C174.292 37.7734 173.582 38.3828 172.988 39.1953C172.394 40.0078 171.933 41 171.605 42.1719C171.277 43.3438 171.113 44.6953 171.113 46.2266V47.2109C171.113 48.4141 171.277 49.5469 171.605 50.6094C171.949 51.6562 172.441 52.5781 173.082 53.375C173.738 54.1719 174.527 54.7969 175.449 55.25C176.386 55.7031 177.449 55.9297 178.636 55.9297C180.167 55.9297 181.464 55.6172 182.527 54.9922C183.589 54.3672 184.519 53.5312 185.316 52.4844L187.941 54.5703C187.394 55.3984 186.699 56.1875 185.855 56.9375C185.011 57.6875 183.972 58.2969 182.738 58.7656C181.519 59.2344 180.074 59.4688 178.402 59.4688ZM209.796 54.0781V23H214.155V59H210.171L209.796 54.0781ZM192.733 46.6016V46.1094C192.733 44.1719 192.968 42.4141 193.437 40.8359C193.921 39.2422 194.601 37.875 195.476 36.7344C196.366 35.5938 197.421 34.7188 198.64 34.1094C199.874 33.4844 201.249 33.1719 202.765 33.1719C204.358 33.1719 205.749 33.4531 206.937 34.0156C208.14 34.5625 209.155 35.3672 209.983 36.4297C210.827 37.4766 211.491 38.7422 211.976 40.2266C212.46 41.7109 212.796 43.3906 212.983 45.2656V47.4219C212.812 49.2812 212.476 50.9531 211.976 52.4375C211.491 53.9219 210.827 55.1875 209.983 56.2344C209.155 57.2812 208.14 58.0859 206.937 58.6484C205.733 59.1953 204.327 59.4688 202.718 59.4688C201.233 59.4688 199.874 59.1484 198.64 58.5078C197.421 57.8672 196.366 56.9688 195.476 55.8125C194.601 54.6562 193.921 53.2969 193.437 51.7344C192.968 50.1562 192.733 48.4453 192.733 46.6016ZM197.093 46.1094V46.6016C197.093 47.8672 197.218 49.0547 197.468 50.1641C197.733 51.2734 198.14 52.25 198.687 53.0938C199.233 53.9375 199.929 54.6016 200.772 55.0859C201.616 55.5547 202.624 55.7891 203.796 55.7891C205.233 55.7891 206.413 55.4844 207.335 54.875C208.272 54.2656 209.022 53.4609 209.585 52.4609C210.147 51.4609 210.585 50.375 210.897 49.2031V43.5547C210.71 42.6953 210.437 41.8672 210.077 41.0703C209.733 40.2578 209.28 39.5391 208.718 38.9141C208.171 38.2734 207.491 37.7656 206.679 37.3906C205.882 37.0156 204.937 36.8281 203.843 36.8281C202.655 36.8281 201.632 37.0781 200.772 37.5781C199.929 38.0625 199.233 38.7344 198.687 39.5938C198.14 40.4375 197.733 41.4219 197.468 42.5469C197.218 43.6562 197.093 44.8438 197.093 46.1094ZM226.096 33.6406V59H221.737V33.6406H226.096ZM221.409 26.9141C221.409 26.2109 221.62 25.6172 222.042 25.1328C222.479 24.6484 223.12 24.4062 223.963 24.4062C224.792 24.4062 225.424 24.6484 225.862 25.1328C226.315 25.6172 226.542 26.2109 226.542 26.9141C226.542 27.5859 226.315 28.1641 225.862 28.6484C225.424 29.1172 224.792 29.3516 223.963 29.3516C223.12 29.3516 222.479 29.1172 222.042 28.6484C221.62 28.1641 221.409 27.5859 221.409 26.9141ZM243.686 55.9062C244.717 55.9062 245.67 55.6953 246.545 55.2734C247.42 54.8516 248.139 54.2734 248.701 53.5391C249.264 52.7891 249.584 51.9375 249.662 50.9844H253.787C253.709 52.4844 253.201 53.8828 252.264 55.1797C251.342 56.4609 250.131 57.5 248.631 58.2969C247.131 59.0781 245.482 59.4688 243.686 59.4688C241.779 59.4688 240.115 59.1328 238.693 58.4609C237.287 57.7891 236.115 56.8672 235.178 55.6953C234.256 54.5234 233.561 53.1797 233.092 51.6641C232.639 50.1328 232.412 48.5156 232.412 46.8125V45.8281C232.412 44.125 232.639 42.5156 233.092 41C233.561 39.4688 234.256 38.1172 235.178 36.9453C236.115 35.7734 237.287 34.8516 238.693 34.1797C240.115 33.5078 241.779 33.1719 243.686 33.1719C245.67 33.1719 247.404 33.5781 248.889 34.3906C250.373 35.1875 251.537 36.2812 252.381 37.6719C253.24 39.0469 253.709 40.6094 253.787 42.3594H249.662C249.584 41.3125 249.287 40.3672 248.772 39.5234C248.272 38.6797 247.584 38.0078 246.709 37.5078C245.85 36.9922 244.842 36.7344 243.686 36.7344C242.357 36.7344 241.24 37 240.334 37.5312C239.443 38.0469 238.732 38.75 238.201 39.6406C237.686 40.5156 237.311 41.4922 237.076 42.5703C236.857 43.6328 236.748 44.7188 236.748 45.8281V46.8125C236.748 47.9219 236.857 49.0156 237.076 50.0938C237.295 51.1719 237.662 52.1484 238.178 53.0234C238.709 53.8984 239.42 54.6016 240.311 55.1328C241.217 55.6484 242.342 55.9062 243.686 55.9062ZM272.83 31.3672L264.017 59H255.861L268.494 24.875H273.65L272.83 31.3672ZM280.142 59L271.306 31.3672L270.392 24.875H275.619L288.298 59H280.142ZM279.767 46.2969V52.2031H261.978V46.2969H279.767ZM299.747 24.875V59H292.13V24.875H299.747Z" fill="#0078FF"/>
<rect y="30.1381" width="42.6216" height="80.2405" rx="21.3108" transform="rotate(-45 0 30.1381)" fill="url(#paint0_linear_2_253)"/>
<rect x="83.2708" width="42.7961" height="80.2405" rx="21.3981" transform="rotate(45 83.2708 0)" fill="#1D87FF"/>
<defs>
<linearGradient id="paint0_linear_2_253" x1="21.3108" y1="30.1381" x2="21.3108" y2="198.401" gradientUnits="userSpaceOnUse">
<stop stop-color="#0078FF"/>
<stop offset="1"/>
</linearGradient>
</defs>
</svg>
