<svg width="56" height="56" viewBox="0 0 56 56" fill="none" xmlns="http://www.w3.org/2000/svg">
<path d="M16.261 16.261C16.4236 16.098 16.6167 15.9687 16.8293 15.8805C17.0419 15.7923 17.2698 15.7469 17.5 15.7469C17.7302 15.7469 17.9581 15.7923 18.1707 15.8805C18.3833 15.9687 18.5765 16.098 18.739 16.261L28 25.5255L37.261 16.261C37.4237 16.0983 37.6169 15.9692 37.8295 15.8812C38.0421 15.7931 38.2699 15.7478 38.5 15.7478C38.7301 15.7478 38.958 15.7931 39.1706 15.8812C39.3831 15.9692 39.5763 16.0983 39.739 16.261C39.9017 16.4237 40.0308 16.6169 40.1188 16.8295C40.2069 17.0421 40.2522 17.2699 40.2522 17.5C40.2522 17.7301 40.2069 17.958 40.1188 18.1706C40.0308 18.3831 39.9017 18.5763 39.739 18.739L30.4745 28L39.739 37.261C39.9017 37.4237 40.0308 37.6169 40.1188 37.8295C40.2069 38.0421 40.2522 38.2699 40.2522 38.5C40.2522 38.7301 40.2069 38.958 40.1188 39.1706C40.0308 39.3831 39.9017 39.5763 39.739 39.739C39.5763 39.9017 39.3831 40.0308 39.1706 40.1188C38.958 40.2069 38.7301 40.2522 38.5 40.2522C38.2699 40.2522 38.0421 40.2069 37.8295 40.1188C37.6169 40.0308 37.4237 39.9017 37.261 39.739L28 30.4745L18.739 39.739C18.5763 39.9017 18.3831 40.0308 18.1706 40.1188C17.958 40.2069 17.7301 40.2522 17.5 40.2522C17.2699 40.2522 17.0421 40.2069 16.8295 40.1188C16.6169 40.0308 16.4237 39.9017 16.261 39.739C16.0983 39.5763 15.9692 39.3831 15.8812 39.1706C15.7931 38.958 15.7478 38.7301 15.7478 38.5C15.7478 38.2699 15.7931 38.0421 15.8812 37.8295C15.9692 37.6169 16.0983 37.4237 16.261 37.261L25.5255 28L16.261 18.739C16.098 18.5765 15.9687 18.3833 15.8805 18.1707C15.7923 17.9581 15.7469 17.7302 15.7469 17.5C15.7469 17.2698 15.7923 17.0419 15.8805 16.8293C15.9687 16.6167 16.098 16.4236 16.261 16.261Z" fill="#0A0A0A"/>
</svg>
