<svg width="687" height="495" viewBox="0 0 687 495" fill="none" xmlns="http://www.w3.org/2000/svg">
<g clip-path="url(#clip0_2_147)">
<path opacity="0.1" d="M399.159 87.2971C355.116 85.7665 313.136 71.5491 273.11 55.9971C233.084 40.4451 193.412 23.2109 150.401 14.97C122.747 9.66378 91.121 8.91749 68.8436 23.7421C47.4012 38.0039 40.4751 62.6252 36.7495 85.4693C33.9475 102.659 32.3219 120.747 39.9817 136.843C45.3139 148.012 54.7764 157.404 61.323 168.105C84.0937 205.338 67.9961 251.254 43.3151 287.638C31.74 304.715 18.3115 320.962 9.38034 339.12C0.449147 357.278 -3.68754 378.079 4.13042 396.597C11.8788 414.938 30.3358 428.738 50.3361 438.434C90.9566 458.109 138.819 463.738 185.493 466.963C288.809 474.028 392.682 470.967 496.27 467.906C534.607 466.767 573.115 465.623 610.826 459.684C631.768 456.389 653.394 451.165 668.6 438.554C687.898 422.54 692.686 395.433 679.751 375.353C658.056 341.681 598.074 333.314 582.906 297.176C574.563 277.285 583.134 255.124 595.266 236.676C621.281 197.103 664.9 162.382 667.196 117.142C668.777 86.0701 647.809 54.9599 615.386 40.2554C581.407 24.8299 534.284 26.7779 509.217 52.272C483.404 78.5376 438.04 88.6442 399.159 87.2971Z" fill="#0078ff"/>
<path d="M153.228 458.552C153.228 458.552 118.44 432.255 111.868 398.804C109.203 384.755 102.054 371.949 91.4942 362.306C86.4425 357.769 80.9864 353.705 75.1941 350.163" stroke="#0078ff" stroke-width="2" stroke-miterlimit="10"/>
<path d="M70.9372 329.089C73.986 333.213 75.3649 350.687 75.3649 350.687C75.3649 350.687 59.0648 344.268 56.0098 340.151C54.5427 338.172 53.9222 335.691 54.2845 333.254C54.6469 330.817 55.9626 328.624 57.9421 327.157C59.9216 325.69 62.4028 325.07 64.8399 325.432C67.2769 325.794 69.4702 327.11 70.9372 329.089V329.089Z" fill="#0078ff"/>
<path d="M100.172 342.801C100.489 347.917 92.1583 363.337 92.1583 363.337C92.1583 363.337 81.9558 349.081 81.6332 343.965C81.5105 341.525 82.354 339.136 83.9809 337.314C85.6078 335.493 87.8871 334.385 90.3249 334.232C92.7627 334.079 95.1626 334.893 97.0047 336.497C98.8468 338.1 99.9826 340.365 100.166 342.801H100.172Z" fill="#0078ff"/>
<path d="M128.509 382.215C126.207 386.794 111.222 395.901 111.222 395.901C111.222 395.901 109.622 378.446 111.925 373.867C113.058 371.713 114.992 370.091 117.309 369.349C119.627 368.607 122.143 368.804 124.317 369.898C126.491 370.992 128.148 372.896 128.932 375.199C129.716 377.503 129.564 380.022 128.509 382.215V382.215Z" fill="#0078ff"/>
<path d="M143.241 416.848C141.742 421.75 128.516 433.254 128.516 433.254C128.516 433.254 123.98 416.323 125.48 411.415C126.2 409.06 127.827 407.088 130.002 405.932C132.176 404.776 134.721 404.532 137.077 405.252C139.432 405.973 141.405 407.599 142.561 409.774C143.717 411.948 143.961 414.493 143.241 416.848V416.848Z" fill="#0078ff"/>
<path d="M77.079 375.733C82.1392 376.416 98.1356 369.193 98.1356 369.193C98.1356 369.193 84.6376 358.011 79.5522 357.328C77.1113 357 74.6402 357.655 72.6823 359.149C70.7245 360.643 69.4404 362.853 69.1124 365.294C68.7844 367.734 69.4395 370.205 70.9336 372.163C72.4276 374.121 74.6382 375.405 77.079 375.733V375.733Z" fill="#0078ff"/>
<path d="M94.8213 416.026C99.8814 415.16 112.956 403.491 112.956 403.491C112.956 403.491 96.7252 396.863 91.6713 397.729C90.4613 397.928 89.3026 398.364 88.262 399.012C87.2214 399.66 86.3196 400.509 85.6086 401.507C84.8975 402.506 84.3914 403.636 84.1194 404.831C83.8473 406.027 83.8148 407.264 84.0236 408.472C84.2324 409.681 84.6785 410.835 85.336 411.87C85.9935 412.905 86.8495 413.799 87.8546 414.502C88.8597 415.204 89.9939 415.7 91.1918 415.962C92.3897 416.223 93.6275 416.245 94.8339 416.026H94.8213Z" fill="#0078ff"/>
<path d="M117.434 452.828C122.564 452.828 137.428 443.538 137.428 443.538C137.428 443.538 122.557 434.26 117.427 434.26C114.965 434.26 112.603 435.238 110.862 436.979C109.12 438.72 108.142 441.082 108.142 443.544C108.142 446.006 109.12 448.368 110.862 450.109C112.603 451.85 114.965 452.828 117.427 452.828H117.434Z" fill="#0078ff"/>
<path d="M491.184 231.104C491.184 231.104 512.627 193.125 544.948 182.184C558.521 177.677 570.266 168.891 578.421 157.145C582.247 151.529 585.547 145.574 588.282 139.354" stroke="#0078ff" stroke-width="2" stroke-miterlimit="10"/>
<path d="M608.574 132.397C604.892 135.964 587.758 139.658 587.758 139.658C587.758 139.658 591.964 122.645 595.645 119.071C597.422 117.408 599.781 116.509 602.214 116.567C604.648 116.626 606.961 117.637 608.656 119.384C610.351 121.131 611.292 123.474 611.276 125.908C611.261 128.341 610.29 130.672 608.574 132.397Z" fill="#0078ff"/>
<path d="M598.883 163.153C593.823 164.153 577.46 157.942 577.46 157.942C577.46 157.942 590.237 145.925 595.265 144.945C596.473 144.677 597.722 144.653 598.938 144.874C600.155 145.096 601.316 145.558 602.351 146.233C603.387 146.909 604.277 147.785 604.97 148.81C605.663 149.834 606.144 150.987 606.385 152.2C606.626 153.413 606.622 154.661 606.374 155.873C606.125 157.084 605.637 158.234 604.939 159.254C604.24 160.275 603.344 161.145 602.304 161.815C601.265 162.484 600.102 162.939 598.883 163.153V163.153Z" fill="#0078ff"/>
<path d="M563.614 196.471C558.769 194.795 547.757 181.159 547.757 181.159C547.757 181.159 564.835 177.251 569.693 178.927C570.86 179.314 571.938 179.929 572.866 180.736C573.793 181.543 574.551 182.527 575.095 183.629C575.64 184.732 575.96 185.932 576.036 187.159C576.113 188.386 575.945 189.616 575.543 190.778C575.14 191.94 574.511 193.01 573.691 193.927C572.872 194.843 571.878 195.588 570.769 196.118C569.659 196.647 568.455 196.951 567.227 197.012C565.999 197.072 564.771 196.888 563.614 196.471V196.471Z" fill="#0078ff"/>
<path d="M531.204 215.672C526.144 214.837 513.012 203.232 513.012 203.232C513.012 203.232 529.199 196.49 534.253 197.325C536.685 197.725 538.859 199.074 540.296 201.077C541.733 203.08 542.316 205.571 541.915 208.003C541.515 210.436 540.165 212.609 538.162 214.046C536.16 215.483 533.668 216.066 531.235 215.666L531.204 215.672Z" fill="#0078ff"/>
<path d="M563.171 144.641C563.165 149.771 572.469 164.652 572.469 164.652C572.469 164.652 581.761 149.79 581.761 144.667C581.793 143.427 581.577 142.194 581.125 141.04C580.673 139.886 579.995 138.834 579.13 137.946C578.265 137.058 577.23 136.352 576.088 135.87C574.946 135.388 573.719 135.14 572.479 135.14C571.239 135.14 570.012 135.388 568.87 135.87C567.727 136.352 566.693 137.058 565.828 137.946C564.963 138.834 564.284 139.886 563.832 141.04C563.381 142.194 563.164 143.427 563.197 144.667L563.171 144.641Z" fill="#0078ff"/>
<path d="M525.581 167.574C527.111 172.469 540.42 183.885 540.42 183.885C540.42 183.885 544.847 166.923 543.304 162.027C542.504 159.759 540.854 157.891 538.703 156.814C536.552 155.738 534.068 155.538 531.772 156.257C529.477 156.976 527.55 158.557 526.398 160.668C525.245 162.779 524.957 165.255 525.593 167.574H525.581Z" fill="#0078ff"/>
<path d="M492.139 194.877C492.822 199.937 504.005 213.452 504.005 213.452C504.005 213.452 511.222 197.483 510.539 192.404C510.404 191.174 510.024 189.983 509.421 188.901C508.818 187.82 508.005 186.87 507.03 186.107C506.055 185.345 504.937 184.785 503.742 184.46C502.547 184.136 501.3 184.054 500.073 184.219C498.846 184.384 497.664 184.792 496.597 185.421C495.53 186.049 494.6 186.884 493.861 187.877C493.122 188.87 492.589 190.001 492.293 191.203C491.997 192.405 491.945 193.654 492.139 194.877V194.877Z" fill="#0078ff"/>
<path opacity="0.25" d="M608.574 132.397C604.892 135.964 587.758 139.658 587.758 139.658C587.758 139.658 591.964 122.645 595.645 119.071C597.422 117.408 599.781 116.509 602.214 116.567C604.648 116.626 606.961 117.637 608.656 119.384C610.351 121.131 611.292 123.474 611.276 125.908C611.261 128.341 610.29 130.672 608.574 132.397Z" fill="black"/>
<path opacity="0.25" d="M598.883 163.153C593.823 164.153 577.46 157.942 577.46 157.942C577.46 157.942 590.237 145.925 595.265 144.945C596.473 144.677 597.722 144.653 598.938 144.874C600.155 145.096 601.316 145.558 602.351 146.233C603.387 146.909 604.277 147.785 604.97 148.81C605.663 149.834 606.144 150.987 606.385 152.2C606.626 153.413 606.622 154.661 606.374 155.873C606.125 157.084 605.637 158.234 604.939 159.254C604.24 160.275 603.344 161.145 602.304 161.815C601.265 162.484 600.102 162.939 598.883 163.153V163.153Z" fill="black"/>
<path opacity="0.25" d="M563.614 196.471C558.769 194.795 547.757 181.159 547.757 181.159C547.757 181.159 564.835 177.251 569.693 178.927C570.86 179.314 571.938 179.929 572.866 180.736C573.793 181.543 574.551 182.527 575.095 183.629C575.64 184.732 575.96 185.932 576.036 187.159C576.113 188.386 575.945 189.616 575.543 190.778C575.14 191.94 574.511 193.01 573.691 193.927C572.872 194.843 571.878 195.588 570.769 196.118C569.659 196.647 568.455 196.951 567.227 197.012C565.999 197.072 564.771 196.888 563.614 196.471V196.471Z" fill="black"/>
<path opacity="0.25" d="M531.204 215.672C526.144 214.837 513.012 203.232 513.012 203.232C513.012 203.232 529.199 196.49 534.253 197.325C536.685 197.725 538.859 199.074 540.296 201.077C541.733 203.08 542.316 205.571 541.915 208.003C541.515 210.436 540.165 212.609 538.162 214.046C536.16 215.483 533.668 216.066 531.235 215.666L531.204 215.672Z" fill="black"/>
<path opacity="0.25" d="M563.171 144.641C563.165 149.771 572.469 164.652 572.469 164.652C572.469 164.652 581.761 149.79 581.761 144.667C581.793 143.427 581.577 142.194 581.125 141.04C580.673 139.886 579.995 138.834 579.13 137.946C578.265 137.058 577.23 136.352 576.088 135.87C574.946 135.388 573.719 135.14 572.479 135.14C571.239 135.14 570.012 135.388 568.87 135.87C567.727 136.352 566.693 137.058 565.828 137.946C564.963 138.834 564.284 139.886 563.832 141.04C563.381 142.194 563.164 143.427 563.197 144.667L563.171 144.641Z" fill="black"/>
<path opacity="0.25" d="M525.581 167.574C527.111 172.469 540.42 183.885 540.42 183.885C540.42 183.885 544.847 166.923 543.304 162.027C542.504 159.759 540.854 157.891 538.703 156.814C536.552 155.738 534.068 155.538 531.772 156.257C529.477 156.976 527.55 158.557 526.398 160.668C525.245 162.779 524.957 165.255 525.593 167.574H525.581Z" fill="black"/>
<path opacity="0.25" d="M492.139 194.877C492.822 199.937 504.005 213.452 504.005 213.452C504.005 213.452 511.222 197.483 510.539 192.404C510.404 191.174 510.024 189.983 509.421 188.901C508.818 187.82 508.005 186.87 507.03 186.107C506.055 185.345 504.937 184.785 503.742 184.46C502.547 184.136 501.3 184.054 500.073 184.219C498.846 184.384 497.664 184.792 496.597 185.421C495.53 186.049 494.6 186.884 493.861 187.877C493.122 188.87 492.589 190.001 492.293 191.203C491.997 192.405 491.945 193.654 492.139 194.877V194.877Z" fill="black"/>
<path d="M492.418 230.351C492.418 230.351 496.63 186.94 521.716 163.855C532.297 154.235 539.474 141.444 542.172 127.401C543.399 120.725 544.011 113.95 544 107.162" stroke="#0078ff" stroke-width="2" stroke-miterlimit="10"/>
<path d="M559.724 92.5148C557.827 97.2708 543.633 107.592 543.633 107.592C543.633 107.592 540.584 90.3329 542.501 85.5768C543.423 83.2931 545.215 81.4694 547.483 80.5069C549.75 79.5444 552.307 79.5219 554.591 80.4445C556.875 81.367 558.699 83.159 559.662 85.4262C560.624 87.6934 560.647 90.2501 559.724 92.5338V92.5148Z" fill="#0078ff"/>
<path d="M563.336 124.593C559.142 127.54 541.64 128.508 541.64 128.508C541.64 128.508 548.459 112.355 552.652 109.408C553.647 108.663 554.781 108.126 555.987 107.828C557.193 107.53 558.446 107.477 559.673 107.671C560.9 107.866 562.075 108.305 563.129 108.962C564.183 109.62 565.095 110.482 565.81 111.497C566.525 112.513 567.028 113.662 567.291 114.876C567.554 116.09 567.571 117.344 567.34 118.565C567.109 119.785 566.636 120.947 565.948 121.982C565.261 123.016 564.372 123.902 563.336 124.586V124.593Z" fill="#0078ff"/>
<path d="M544.575 169.358C539.464 169.788 523.866 161.768 523.866 161.768C523.866 161.768 537.908 151.269 543.019 150.839C545.473 150.633 547.909 151.41 549.79 152.999C551.672 154.589 552.845 156.86 553.051 159.314C553.257 161.768 552.48 164.204 550.891 166.085C549.301 167.966 547.03 169.139 544.575 169.345V169.358Z" fill="#0078ff"/>
<path d="M522.747 200.025C517.782 201.29 501.058 196.06 501.058 196.06C501.058 196.06 513.12 183.341 518.085 182.051C520.469 181.433 523.001 181.787 525.124 183.035C527.246 184.283 528.786 186.324 529.404 188.707C530.022 191.091 529.668 193.622 528.42 195.745C527.171 197.867 525.131 199.407 522.747 200.025V200.025Z" fill="#0078ff"/>
<path d="M523.19 122.139C525.264 126.825 539.774 136.685 539.774 136.685C539.774 136.685 542.241 119.331 540.167 114.644C539.133 112.452 537.282 110.75 535.011 109.904C532.739 109.057 530.226 109.132 528.009 110.113C525.793 111.095 524.047 112.904 523.147 115.154C522.246 117.405 522.262 119.918 523.19 122.158V122.139Z" fill="#0078ff"/>
<path d="M498.117 158.328C501.501 162.179 518.288 167.226 518.288 167.226C518.288 167.226 515.454 149.929 512.07 146.077C511.271 145.141 510.294 144.374 509.196 143.819C508.098 143.264 506.901 142.933 505.674 142.844C504.447 142.756 503.214 142.912 502.048 143.304C500.882 143.696 499.805 144.316 498.881 145.128C497.956 145.94 497.202 146.927 496.663 148.033C496.123 149.138 495.809 150.34 495.738 151.568C495.666 152.796 495.84 154.026 496.249 155.187C496.657 156.347 497.292 157.415 498.117 158.328V158.328Z" fill="#0078ff"/>
<path d="M478.578 196.857C481.26 201.221 496.953 209.031 496.953 209.031C496.953 209.031 497.086 191.506 494.423 187.136C493.097 185.118 491.038 183.696 488.681 183.171C486.324 182.646 483.856 183.059 481.799 184.324C479.742 185.588 478.258 187.604 477.663 189.944C477.068 192.283 477.407 194.763 478.61 196.857H478.578Z" fill="#0078ff"/>
<path d="M460.159 60.3421C461.209 56.4905 462.474 52.6199 463.36 48.7177C462.297 52.6199 461.026 56.5031 460.159 60.3421Z" fill="url(#paint0_linear_2_147)"/>
<path d="M455.453 97.4416C455.365 97.2898 455.301 97.138 455.232 96.9989C455.232 96.9356 455.168 96.885 455.143 96.8218C455.005 96.8868 454.864 96.9439 454.719 96.9926C454.441 97.1001 454.156 97.2013 453.865 97.2835C453.574 97.3657 453.454 97.41 453.233 97.4606C453.049 97.5238 452.861 97.5724 452.67 97.606L452.721 97.7199C452.955 97.6693 453.182 97.625 453.416 97.5618L453.48 98.346C453.745 98.346 453.992 98.3081 454.232 98.3081C454.346 98.3018 454.46 98.3018 454.574 98.3081C455.067 98.3081 455.497 98.3081 455.839 98.3081C455.706 98.0235 455.567 97.7262 455.453 97.4416ZM583.855 301.805C580.882 297.802 574.949 254.833 574.949 254.833C574.949 254.833 563.279 224.28 566.461 212.086C569.642 199.892 557.77 168.693 557.77 168.693C557.77 168.693 549.926 165.285 549.503 160.225C549.503 160.225 517.478 150.106 515.979 142.516C514.765 136.293 494.903 131.828 487.769 130.418C485.593 121.639 483.404 113.449 481.791 108.978C481.355 107.586 480.944 106.384 480.564 105.436C477.838 98.4788 469.413 97.8464 463.303 98.4029C463.038 97.2172 462.546 96.094 461.854 95.0952C461.753 94.7518 461.553 94.446 461.279 94.2161C461.147 94.1044 461.008 94.0029 460.861 93.9125C460.751 93.7076 460.605 93.5235 460.431 93.3686C460.257 93.2123 460.066 93.0765 459.862 92.9639C459.715 92.8843 459.563 92.8146 459.406 92.7552C459.04 92.6156 458.661 92.5118 458.274 92.4452C457.824 92.3526 457.367 92.2934 456.908 92.2682C458.024 91.7799 459.02 91.0522 459.824 90.1368C460.371 89.4941 460.778 88.7445 461.019 87.9359C461.22 87.2633 461.309 86.5627 461.285 85.8614C461.121 86.1504 460.93 86.4236 460.716 86.6773C460.981 83.8755 459.501 81.0295 458.654 78.2404C457.627 74.6094 457.436 70.7928 458.097 67.0777C458.945 61.4741 461.045 55.8074 462.468 50.1027C462.471 50.0712 462.471 50.0393 462.468 50.0078C463.214 47.1747 463.676 44.2743 463.847 41.3496C464.093 35.4488 462.582 29.5607 460.153 24.1849C457.996 19.4225 454.814 14.736 449.944 12.8007C446.326 11.3398 442.271 11.5738 438.375 11.3335C429.634 10.7896 421.297 7.71585 412.986 4.92041C404.674 2.12498 396.123 -0.417469 387.375 0.069518C378.627 0.556505 369.626 4.77495 365.635 12.5161C364.37 14.9321 363.643 17.62 362.131 19.8905C359.297 24.1722 354.224 26.3162 349.993 29.2698C345.761 32.2233 342.036 36.4164 340.505 41.4191C339.669 44.1144 339.551 46.9811 340.163 49.7359V49.7359C340.301 50.358 340.479 50.9706 340.695 51.57C341.295 53.2411 342.232 54.7714 343.446 56.0667C344.362 57.024 345.415 57.8403 346.571 58.489V58.489C348.022 59.2932 349.575 59.8974 351.188 60.2851C351.131 60.4749 351.074 60.6773 351.011 60.8733C350.91 61.1959 350.821 61.5058 350.727 61.8536C350.518 62.6315 350.322 63.4221 350.157 64.219C350.151 64.2757 350.151 64.333 350.157 64.3897C349.38 67.9871 348.99 71.6572 348.993 75.3375C348.992 77.078 349.081 78.8175 349.259 80.5488V80.5488C351.789 106.214 372.979 126.458 399.159 127.774C400.057 127.818 400.961 127.843 401.879 127.843C402.296 127.843 402.707 127.843 403.144 127.843C403.555 128.387 403.96 128.944 404.345 129.488C404.731 130.032 405.085 130.588 405.421 131.132L404.504 130.184L403.586 129.342C403.338 129.684 403.061 130.003 402.758 130.297C402.16 130.087 401.549 129.914 400.93 129.779V129.779C398.305 129.197 394.307 128.982 389.045 130.569C384.206 132.018 378.292 134.997 371.372 140.657L337.652 160.895L319.41 171.989L312.839 188.053C312.839 188.053 307.899 207.14 302.402 229.01C302.187 229.074 301.978 229.137 301.769 229.213C301.324 229.162 300.877 229.137 300.429 229.137C297.239 229.129 294.172 230.358 291.869 232.564C289.567 234.771 288.209 237.784 288.082 240.97C277.152 254.251 276.532 267.533 279.1 273.63C279.332 274.201 279.625 274.746 279.973 275.255C281.655 277.684 284.799 283.945 287.987 290.617C287.905 291.168 287.854 291.629 287.829 291.977C287.823 292.091 287.823 292.205 287.829 292.319C287.829 292.319 289.726 320.975 283.401 329.19C282.016 330.98 282.225 333.333 283.401 335.939C287.639 345.312 304.394 357.828 304.394 357.828C304.394 357.828 324.49 357.72 335.685 356.5C335.654 357.625 335.628 358.745 335.603 359.839C335.35 370.894 335.35 380.16 335.35 380.16L334.933 391.752C334.933 391.752 331.137 416.184 329.24 422.92C328.044 427.144 329.423 466.261 330.625 495.019H528.617C530.944 478.006 527.662 426.316 527.662 426.316C527.662 426.316 524.543 412.952 524.429 401.302C524.423 401.29 524.42 401.276 524.42 401.261C524.42 401.247 524.423 401.233 524.429 401.22C524.429 400.202 524.429 399.209 524.467 398.235L525.903 398.184L528.484 398.096H528.718C528.718 398.096 528.781 397.856 528.927 397.463C529.268 396.487 529.734 395.558 530.312 394.7C531.413 393.074 533.133 391.48 535.72 391.373C537.15 391.316 539.363 390.159 541.862 388.451C541.878 388.455 541.896 388.455 541.912 388.451C548.636 383.904 557.523 375.511 559.68 374.132C562.646 372.235 576.853 359.586 576.853 359.586C576.853 359.586 578.972 356.904 581.23 353.673L581.312 353.559C584.12 349.511 587.106 344.673 586.372 343.149C585.107 340.416 587.22 333.883 587.22 333.883C593.817 321.81 586.828 305.809 583.855 301.805ZM461.544 107.276C461.605 107.465 461.643 107.66 461.658 107.858C461.5 107.649 461.342 107.428 461.184 107.226L461.032 107.023L460.924 106.871L461.165 106.543C461.165 106.543 461.165 106.543 461.165 106.587C461.332 106.792 461.46 107.025 461.544 107.276V107.276ZM459.419 101.673C458.73 101.812 458.186 101.938 457.831 102.033C457.382 101.236 456.952 100.439 456.566 99.6299C457.58 100.218 458.536 100.902 459.419 101.673V101.673ZM458.23 102.672C458.228 102.659 458.228 102.647 458.23 102.634L458.28 102.672C458.54 102.843 458.793 103.007 459.027 103.178C459.236 103.33 459.425 103.475 459.615 103.627C459.489 103.848 459.349 104.076 459.21 104.259C458.989 103.912 458.78 103.576 458.578 103.229C458.451 103.089 458.337 102.9 458.23 102.672ZM454.435 94.8675C455.657 94.747 456.888 94.747 458.11 94.8675V94.8675C458.28 94.8675 458.432 94.8992 458.584 94.9245C458.927 94.9775 459.264 95.0643 459.59 95.1838C460.337 96.2294 460.797 97.4528 460.924 98.7318L460.583 98.7824L460.248 98.8456C459.615 98.9532 458.983 99.0607 458.489 99.1619L457.857 99.2947C457.015 99.4781 456.528 99.6172 456.509 99.6236C456.427 99.4528 456.345 99.2947 456.256 99.1302C456.117 98.8583 455.972 98.58 455.845 98.3081C455.719 98.0361 455.554 97.7262 455.421 97.4416C455.333 97.2898 455.27 97.138 455.2 96.9989C455.2 96.9356 455.137 96.885 455.112 96.8218C455.075 96.7547 455.043 96.6849 455.017 96.6131C454.631 95.8289 454.277 95.0446 453.935 94.273C453.897 94.1971 453.865 94.1149 453.834 94.039L454.315 94.0074V94.1718L454.435 94.8675ZM303.522 487.202C303.471 477.785 302.788 467.596 300.89 458.033C300.081 453.967 299.246 449.9 298.398 445.903C298.183 444.904 297.974 443.917 297.766 442.93L295.817 443.19H295.64C290.327 418.138 284.774 396.066 284.774 396.066C284.774 396.066 273.742 353.951 275.02 350.593C275.185 350.156 274.976 348.98 274.508 347.253C271.839 337.678 260.694 311.292 256.797 302.273C256.797 302.235 256.766 302.191 256.753 302.16C256.12 300.648 255.665 299.63 255.526 299.332L256.443 285.874L256.494 285.064L256.614 283.344L256.563 283.3L256.614 282.503C256.614 282.503 246.987 274.61 230.68 268.912C230.048 268.684 229.377 268.463 228.713 268.248C229.529 262.802 230.611 256.655 232.021 250.665C232.154 250.065 232.3 249.483 232.451 248.895C232.584 248.306 232.736 247.737 232.888 247.162C233.128 246.226 233.388 245.302 233.653 244.391C234.532 244.113 235.399 243.803 236.253 243.474L236.582 243.348C247.101 239.255 255.781 231.49 261.014 221.49C266.248 211.489 267.68 199.932 265.045 188.957V188.957C263.543 182.733 260.769 176.887 256.898 171.786C256.607 171.394 256.298 171.002 255.988 170.616C255.678 170.23 255.304 169.8 254.957 169.408C256.785 165.253 258.941 161.3 259.119 157.259C259.15 156.747 259.15 156.234 259.119 155.722V155.659C258.885 153.059 257.733 150.428 255.051 147.665C251.136 143.611 245.564 141.555 239.991 140.568C234.419 139.582 228.739 139.556 223.134 138.892C213.843 137.779 204.791 134.914 195.5 134.035C184.055 132.975 172.532 134.938 162.084 139.727C155.17 142.889 148.168 148.417 147.751 156C147.409 162.268 151.773 168.276 150.673 174.468C149.579 180.552 143.38 185.34 143.924 191.493C144.133 193.897 145.366 196.047 146.909 197.963C147.441 198.596 148.004 199.228 148.586 199.861C150.837 202.245 153.317 204.534 154.576 207.539C154.626 207.665 154.677 207.792 154.721 207.918C155.79 210.884 155.309 214.635 152.665 216.336C152.68 216.347 152.691 216.363 152.697 216.38V216.38C152.735 216.431 152.773 216.469 152.804 216.519C152.808 216.509 152.808 216.498 152.804 216.488C153.742 217.599 155.006 218.387 156.416 218.739L156.954 218.904C156.517 219.378 156.106 219.871 155.689 220.39L155.417 220.75C154.72 221.688 154.086 222.67 153.519 223.691C153.197 224.261 152.887 224.83 152.627 225.399C151.76 227.134 151.133 228.979 150.761 230.882C150.085 235.069 151.04 239.433 150.015 243.531C148.75 248.591 144.746 252.474 142.488 257.173C138.212 266.028 140.635 276.419 141.495 286.196C142.665 299.478 140.768 312.816 138.876 326.009C137.873 333.025 136.869 340.048 135.866 347.076C133.335 364.717 130.805 382.358 128.275 400C127.352 406.463 126.258 413.281 121.95 418.271H121.994C121.994 418.271 121.994 418.309 121.95 418.322C123.243 418.887 124.618 419.241 126.024 419.372V419.372C131.647 419.934 137.605 417.215 142.665 414.242C146.672 411.927 150.468 409.263 154.006 406.28C153.488 408.177 152.931 410.245 152.336 412.472C152.338 412.493 152.338 412.514 152.336 412.535V412.535C145.195 439.73 133.709 489.586 133.709 489.586C133.709 489.586 132.665 491.756 131.311 494.987H309.682C307.595 492.458 305.653 490.035 304.135 488.081L303.522 487.202ZM171.451 235.74C171.495 235.664 171.527 235.594 171.571 235.525C171.571 235.727 171.571 235.923 171.571 236.113C171.571 236.302 171.571 236.473 171.571 236.65C171.571 236.827 171.571 236.808 171.571 236.897C171.571 236.985 171.571 236.897 171.571 236.897C171.571 237.156 171.514 237.416 171.47 237.675C171.47 237.675 171.47 237.706 171.47 237.732L172.103 237.966L172.836 238.269C177.171 239.981 181.561 241.531 186.005 242.918C186.461 243.063 186.923 243.202 187.384 243.335L187.479 244.12C187.593 244.923 187.701 245.739 187.802 246.554C187.802 246.554 187.802 246.592 187.802 246.618C188.086 248.876 188.365 251.127 188.611 253.328C188.611 253.328 176.998 248.901 177.144 255.624C177.137 255.744 177.137 255.864 177.144 255.984C177.131 256.144 177.131 256.305 177.144 256.465C177.251 261.702 178.89 264.807 179.219 266.401C179.199 266.467 179.164 266.527 179.117 266.578C178.837 267.188 178.74 267.867 178.839 268.532C178.828 269.664 178.917 270.794 179.105 271.909C178.763 272.118 178.428 272.327 178.093 272.542C177.84 272.7 177.599 272.877 177.353 273.054C175.801 267.672 173.771 262.44 171.287 257.42C169.547 253.84 167.593 250.109 167.612 246.181C167.612 245.928 167.612 245.669 167.643 245.41C167.714 244.271 167.931 243.147 168.289 242.064C168.434 241.653 168.592 241.248 168.769 240.85C169.183 239.903 169.645 238.978 170.155 238.08C170.483 237.485 170.831 236.897 171.167 236.302C171.274 236.125 171.375 235.942 171.476 235.765L171.451 235.74ZM455.453 97.4416C455.365 97.2898 455.301 97.138 455.232 96.9989C455.232 96.9356 455.168 96.885 455.143 96.8218C455.005 96.8868 454.864 96.9439 454.719 96.9926C454.441 97.1001 454.156 97.2013 453.865 97.2835C453.574 97.3657 453.454 97.41 453.233 97.4606L452.67 97.606L452.721 97.7199C452.955 97.6693 453.182 97.625 453.416 97.5618L453.48 98.346C453.745 98.346 453.992 98.3081 454.232 98.3081H454.574C455.067 98.3081 455.497 98.3081 455.839 98.3081C455.706 98.0235 455.567 97.7262 455.453 97.4416Z" fill="url(#paint1_linear_2_147)"/>
<path d="M317.247 190.336L313.452 192.012C313.452 192.012 288.714 288.106 288.714 295.873C288.714 303.639 341.169 346.855 341.169 346.855L349.354 291.617C349.354 291.617 337.602 164.943 317.247 190.336Z" fill="#E8F5FF"/>
<path d="M432.309 159.77L410.392 148.335C409.165 143.102 406.986 138.14 403.966 133.694C400.759 129.064 396.496 124.517 391.183 122.145C377.754 116.124 447.983 84.5206 447.983 84.5206C449.089 88.3171 450.392 92.0536 451.886 95.715C455.504 104.645 461.506 116.194 469.242 119.482C482.392 125.08 432.309 159.77 432.309 159.77Z" fill="#FFC1C7"/>
<path opacity="0.1" d="M451.886 95.715C448.885 106.267 442.645 115.611 434.046 122.425C425.448 129.24 414.926 133.182 403.966 133.694C400.759 129.064 396.496 124.517 391.183 122.145C377.754 116.124 447.983 84.5206 447.983 84.5206C449.089 88.3171 450.392 92.0536 451.886 95.715V95.715Z" fill="black"/>
<path d="M453.859 79.7583C453.862 90.1075 450.795 100.225 445.046 108.831C439.297 117.438 431.125 124.146 421.563 128.108C412.001 132.07 401.479 133.107 391.327 131.089C381.176 129.071 371.85 124.088 364.531 116.771C357.212 109.453 352.227 100.13 350.208 89.9794C348.188 79.829 349.225 69.3078 353.186 59.7465C357.147 50.1851 363.855 42.0132 372.462 36.2641C381.068 30.515 391.187 27.4471 401.537 27.4483C408.416 27.4165 415.234 28.7478 421.596 31.3652C427.958 33.9827 433.738 37.8345 438.603 42.6982C443.468 47.5619 447.321 53.3411 449.939 59.7021C452.558 66.063 453.89 72.8796 453.859 79.7583V79.7583Z" fill="#FFC1C7"/>
<path d="M461.411 153.053L447.142 186.345L434.555 208.443H394.263L382.511 178.231L387.274 146.899H418.046L437.913 145.78L444.624 143.541L448.951 145.995L461.411 153.053Z" fill="#575A89"/>
<path opacity="0.1" d="M456.497 108.674C456.497 108.674 465.396 110.571 457.426 117.105C449.457 123.638 421.961 144.414 421.961 144.414C421.961 144.414 431.62 153.015 429.621 163.09L461.62 145.255L467.313 116.719C467.313 116.719 467.952 108.143 456.497 108.674Z" fill="black"/>
<path opacity="0.1" d="M428.255 144.414L407.9 147.772C407.9 147.772 412.1 163.299 410 167.707C409.937 167.844 409.884 167.986 409.842 168.131L401.537 190.576L407.761 208.203L429.305 178.825L421.961 167.707C421.961 167.707 429.722 157.423 434.339 153.856C438.957 150.289 428.255 144.414 428.255 144.414Z" fill="black"/>
<path d="M428.255 143.547L407.9 146.899C407.9 146.899 412.1 162.426 410 166.834C409.937 166.971 409.884 167.113 409.842 167.258L401.537 189.703L407.761 207.33L429.305 177.934L421.961 166.815C421.961 166.815 429.722 156.531 434.339 152.964C438.957 149.397 428.255 143.547 428.255 143.547Z" fill="#DCE6F2"/>
<path d="M457.351 106.998C457.351 106.998 466.25 108.895 458.274 115.429C450.298 121.962 421.961 144.414 421.961 144.414C421.961 144.414 432.455 151.339 430.462 161.408L462.461 143.579L468.154 115.043C468.154 115.043 468.787 106.467 457.351 106.998Z" fill="#575A89"/>
<path opacity="0.1" d="M405.364 135.673C405.364 135.673 407.306 139.304 415.876 145.849C415.876 145.849 401.607 153.439 407.065 164.108L385.237 158.416L381.878 147.924L405.364 135.673Z" fill="black"/>
<path d="M404.522 134.838C404.522 134.838 406.464 138.469 415.035 145.015C415.035 145.015 400.765 152.566 406.224 163.267L384.402 157.575L381.043 147.089L404.522 134.838Z" fill="#575A89"/>
<path opacity="0.1" d="M461.411 153.053L447.142 186.345L434.58 208.443H394.263L382.511 178.231L387.267 146.899H395.825C395.686 154.21 398.355 162.799 398.185 165.993C397.894 171.242 406.015 199.563 406.015 199.563C406.015 199.563 423.011 172.077 429.722 169.63C433.941 168.093 442.879 155.305 448.944 145.995L461.411 153.053Z" fill="black"/>
<path d="M517.624 328.248L516.175 330.07C516.175 330.07 526.669 382.734 523.765 394.693C523.272 396.849 522.99 399.048 522.924 401.258V401.353C522.412 413.521 526.087 429.314 526.087 429.314C526.087 429.314 529.022 475.862 527.352 495.006H330.878C329.727 466.698 328.487 430.022 329.613 425.955C331.511 419.245 335.306 394.902 335.306 394.902L335.723 383.366C335.723 383.366 335.723 372.216 336.065 359.795C336.21 354.21 336.425 348.347 336.735 343.149C337.134 336.609 337.69 331.101 338.456 328.394C338.927 326.342 339.198 324.249 339.265 322.145C339.265 321.949 339.265 321.747 339.303 321.544C339.303 320.912 339.366 320.229 339.392 319.527C339.392 319.331 339.392 319.135 339.392 318.894C339.512 314.821 339.468 309.989 339.335 304.98C339.335 304.708 339.335 304.43 339.335 304.152C339.227 300.395 339.069 296.562 338.892 292.919C338.342 281.535 337.627 271.909 337.627 271.909L313.496 191.968L319.999 175.954L338.044 164.899L371.41 144.755C387.685 131.379 398.4 132.985 402.486 134.453C402.883 134.588 403.271 134.746 403.65 134.927C403.776 134.99 403.877 135.041 403.972 135.098C404.102 135.159 404.227 135.231 404.345 135.313V135.313C403.226 135.851 402.254 136.652 401.512 137.647C400.675 138.779 400.079 140.07 399.76 141.441C399.546 142.291 399.396 143.156 399.31 144.028C399.228 144.945 399.197 145.894 399.197 146.849C399.242 148.943 399.421 151.032 399.734 153.104C399.734 153.142 399.734 153.192 399.734 153.243C399.943 154.723 400.202 156.171 400.455 157.531C400.452 157.554 400.452 157.577 400.455 157.6C400.746 159.188 401.037 160.655 401.233 161.92C401.271 162.148 401.303 162.356 401.335 162.552C401.474 163.388 401.54 164.235 401.531 165.082C401.602 167.128 401.877 169.162 402.353 171.154C402.517 171.989 402.707 172.88 402.916 173.81C403.2 175.075 403.51 176.454 403.846 177.858C404.029 178.629 404.225 179.426 404.428 180.217C404.503 180.533 404.586 180.849 404.662 181.172L404.788 181.671C406.135 187.028 407.596 192.36 408.495 195.585C409.026 197.483 409.361 198.653 409.361 198.653C409.361 198.653 418.887 183.253 426.49 174.487C426.604 174.36 426.705 174.24 426.812 174.126C427.565 173.26 428.305 172.469 429.014 171.774C430.563 170.23 431.955 169.13 433.074 168.725C433.313 168.638 433.544 168.53 433.764 168.403C436.876 166.638 441.898 160.231 446.598 153.521C447.059 152.889 447.509 152.199 447.964 151.548C449.008 150.043 450.02 148.531 450.975 147.083C451.708 145.976 452.411 144.901 453.075 143.876C456.237 138.956 458.464 135.287 458.464 135.287L462.854 135.091L463.619 135.053H464.131L484.062 134.13C484.062 134.13 484.922 134.276 486.339 134.56C486.415 134.56 486.491 134.56 486.573 134.611C493.645 136.015 513.291 140.461 514.493 146.627C515.96 154.179 547.649 164.254 547.649 164.254C548.067 169.313 555.828 172.646 555.828 172.646C555.828 172.646 567.58 203.7 564.436 215.868C561.331 227.885 572.52 257.61 572.817 258.445L570.673 261.151L517.624 328.248Z" fill="#E8F5FF"/>
<path opacity="0.1" d="M456.49 106.467C456.49 106.467 475.89 100.964 480.299 112.292C484.707 123.619 494.568 169.364 494.568 169.364C494.568 169.364 468.964 174.19 462.253 169.364C458.316 166.5 453.444 165.226 448.609 165.797L434.131 175.657L429.855 174.392C429.855 174.392 453.018 139.961 458.053 128.261C463.088 116.561 464.789 111.33 456.49 106.467Z" fill="black"/>
<path d="M455.649 103.937C455.649 103.937 475.061 98.4346 479.489 109.762C483.916 121.089 493.758 166.834 493.758 166.834C493.758 166.834 468.16 171.66 461.443 166.834C457.509 163.97 452.639 162.696 447.806 163.267L433.315 173.127L429.039 171.862C429.039 171.862 452.202 137.432 457.237 125.731C462.272 114.031 463.948 108.813 455.649 103.937Z" fill="#E8F5FF"/>
<path opacity="0.1" d="M325.432 286.43C325.432 286.43 339.91 289.997 342.643 298.181C345.375 306.365 331.941 306.574 331.941 306.574C331.941 306.574 323.756 292.097 325.432 286.43Z" fill="black"/>
<path opacity="0.1" d="M379.361 346.855C379.361 346.855 343.902 419.454 352.087 426.379C360.271 433.305 379.361 346.855 379.361 346.855Z" fill="black"/>
<path opacity="0.1" d="M428.255 293.356C428.255 293.356 456.585 363.874 450.918 374.765C445.25 385.656 463.088 374.765 463.088 374.765L428.255 293.356Z" fill="black"/>
<path d="M467.705 363.014C467.705 363.014 372.017 367.631 399.93 397.426C427.844 427.22 485.125 398.69 485.125 398.69L467.705 363.014Z" fill="#FFC1C7"/>
<path opacity="0.1" d="M453.859 79.7584C453.868 86.6206 452.52 93.4168 449.893 99.7565C449.014 99.8577 448.135 99.9209 447.287 99.9589C446.022 97.1824 446.699 93.9759 446.724 90.9211C446.75 87.8664 445.624 84.2741 442.682 83.4519C436.819 81.8012 432.771 92.7616 426.99 90.782C422.562 89.2768 423.719 82.5602 421.17 78.6832C419.153 75.6158 415.111 74.7494 411.967 72.8267C405.281 68.7221 405.484 62.1573 402.378 55.9466C399.127 49.4387 392.258 51.3614 386.293 55.2003C381.764 58.1223 377.855 62.0371 373.01 64.3645C368.817 66.3884 364.104 67.122 359.455 67.2296C356.593 67.3405 353.73 67.038 350.954 66.3315C354.219 54.0581 361.837 43.391 372.388 36.3196C382.938 29.2482 395.701 26.2551 408.296 27.8986C420.891 29.542 432.458 35.7098 440.84 45.2517C449.222 54.7936 453.847 67.0582 453.853 79.7584H453.859Z" fill="black"/>
<path d="M386.312 53.5243C381.777 56.4463 377.874 60.3548 373.029 62.6949C368.836 64.7124 364.123 65.446 359.474 65.5535C353.782 65.68 347.652 64.6808 343.762 60.5698C340.189 56.7751 339.335 50.9376 340.847 45.9602C342.358 40.9828 345.983 36.8529 350.239 33.8615C354.496 30.87 359.436 28.8018 362.257 24.5202C363.75 22.256 364.471 19.587 365.711 17.1774C369.677 9.46784 378.595 5.29366 387.217 4.77505C395.838 4.25645 404.383 6.82419 412.593 9.60698C420.804 12.3898 429.077 15.4508 437.742 16.0263C441.601 16.2667 445.611 16.0263 449.191 17.4873C454.005 19.4416 457.161 24.1154 459.311 28.8714C461.721 34.2346 463.22 40.0911 462.967 45.9476C462.436 58.4511 454.175 70.7207 457.806 82.6993C458.767 85.8931 460.57 89.1692 459.609 92.3631C458.205 97.0243 452.189 98.0868 447.325 98.3082C446.06 95.5317 446.737 92.3188 446.762 89.2704C446.788 86.222 445.662 82.6234 442.727 81.8012C436.857 80.1631 432.809 91.1045 427.04 89.1313C422.644 87.6197 423.783 80.9094 421.227 77.0325C419.21 73.9588 415.161 73.0987 412.024 71.176C405.338 67.0714 405.541 60.5066 402.435 54.2959C399.159 47.7564 392.283 49.679 386.312 53.5243Z" fill="#99607E"/>
<path d="M293.528 294.191L288.701 295.873C288.701 295.873 290.599 324.409 284.274 332.593C277.949 340.777 305.046 361.123 305.046 361.123C305.046 361.123 342.187 360.914 343.237 357.961C344.287 355.007 341.34 305.088 341.34 305.088C341.34 305.088 321.403 297.321 323.079 284.944C323.079 284.944 316.994 314.107 307.974 312.848C298.955 311.589 288.714 304.057 293.528 294.191Z" fill="#E8F5FF"/>
<path opacity="0.1" d="M309.625 321.677C316.657 321.677 322.358 316.464 322.358 310.034C322.358 303.603 316.657 298.39 309.625 298.39C302.593 298.39 296.893 303.603 296.893 310.034C296.893 316.464 302.593 321.677 309.625 321.677Z" fill="black"/>
<path d="M323.547 295.032C323.547 295.032 321.017 217.822 298.993 235.025C276.968 252.228 276.753 272.801 280.947 278.879C285.14 284.957 298.588 315.384 298.588 315.384C300.691 316.603 303.054 317.306 305.481 317.436C307.909 317.566 310.333 317.119 312.555 316.132C314.776 315.145 316.733 313.645 318.263 311.756C319.793 309.867 320.854 307.643 321.359 305.265L323.547 295.032Z" fill="#FFC1C7"/>
<path opacity="0.1" d="M460.937 99.4592C460.834 99.12 460.637 98.8171 460.368 98.5864C459.28 97.5934 456.939 97.2456 453.41 97.5492L453.555 99.2188C458.261 98.8141 459.191 99.7501 459.311 99.9082V100.066L459.457 100.275C460.044 101.064 460.459 101.966 460.677 102.924C460.895 103.883 460.91 104.876 460.722 105.841C459.691 110.995 453.359 115.1 453.296 115.144L453.144 115.232L453.049 115.378C450.317 119.432 434.864 130.873 430.823 133.833L430.468 133.428C428.659 134.997 412.758 148.917 411.898 154.248C411.341 157.594 407.571 158.891 406.205 159.251C404.763 158.157 400.082 154.432 397.647 150.258C395.364 146.33 404.554 138.665 405.364 135.673L404.099 134.377C403.966 134.857 392.163 145.887 395.446 151.522C398.077 156.045 402.884 159.915 404.567 161.193C404.029 166.075 400.683 194.744 395.541 201.537C389.152 209.98 383.782 252.531 384.377 267.387C384.902 280.587 381.454 305.518 369.943 316.225C367.949 318.16 365.545 319.62 362.909 320.496C360.273 321.372 357.473 321.642 354.718 321.285H354.579H354.439C354.275 321.285 337.576 322.992 323.547 311.166C312.067 301.508 305.565 285.747 304.211 264.307H303.933L303.819 258.065C306.932 257.579 309.735 255.906 311.64 253.397C313.544 250.888 314.402 247.738 314.033 244.61C313.664 241.482 312.097 238.618 309.661 236.621C307.225 234.624 304.109 233.649 300.969 233.9C297.828 234.152 294.908 235.611 292.821 237.97C290.733 240.33 289.642 243.407 289.776 246.554C289.91 249.701 291.259 252.674 293.539 254.847C295.819 257.021 298.853 258.227 302.003 258.211H302.143L302.256 264.415L301.7 264.453C303.091 286.589 309.923 302.963 321.94 313.076C331.075 320.644 342.743 324.462 354.585 323.758C355.425 323.85 356.27 323.896 357.115 323.897C362.543 323.925 367.766 321.825 371.663 318.047C383.788 306.757 387.476 280.909 386.9 267.261C386.268 251.519 391.904 210.498 397.558 203.029C403.099 195.699 406.458 167.138 407.046 161.604C409.051 161.041 413.586 159.264 414.358 154.647C414.915 151.307 425.535 141.017 432.069 135.319L431.873 135.091C435.389 132.524 446.326 124.428 451.746 119.23C453.429 117.617 455.099 116.004 456.845 114.467C458.945 112.608 461.614 109.654 462.316 106.163C462.555 105.011 462.556 103.822 462.319 102.669C462.082 101.516 461.612 100.424 460.937 99.4592V99.4592Z" fill="black"/>
<path d="M404.352 160.794C404.086 160.611 397.786 156.101 394.63 150.675C391.353 145.04 403.156 134.016 403.283 133.536L404.548 134.832C403.745 137.817 394.554 145.489 396.837 149.41C399.715 154.362 405.775 158.694 405.838 158.739L404.352 160.794Z" fill="#353146"/>
<path d="M430 135.06L429.014 133.7C429.216 133.555 449.084 119.185 452.215 114.537L452.316 114.398L452.461 114.303C452.524 114.258 458.856 110.16 459.887 104.999C460.077 104.036 460.063 103.043 459.845 102.085C459.627 101.128 459.21 100.227 458.622 99.4402L458.477 99.2251V99.0734C458.35 98.9089 457.42 97.9792 452.714 98.384L452.569 96.708C456.105 96.4044 458.439 96.7523 459.526 97.7452C459.797 97.9782 459.997 98.2829 460.102 98.6243C460.786 99.5859 461.266 100.677 461.512 101.831C461.757 102.986 461.764 104.178 461.532 105.335C460.829 108.832 458.167 111.786 456.06 113.639C454.321 115.176 452.645 116.801 450.968 118.401C444.612 124.492 430.696 134.56 430 135.06Z" fill="#E8F5FF"/>
<path d="M303.003 255.863L301.327 255.894L301.513 266.081L303.189 266.05L303.003 255.863Z" fill="#E8F5FF"/>
<path d="M301.188 257.407C307.947 257.407 313.427 251.928 313.427 245.169C313.427 238.411 307.947 232.932 301.188 232.932C294.428 232.932 288.948 238.411 288.948 245.169C288.948 251.928 294.428 257.407 301.188 257.407Z" fill="#6C63FF"/>
<path d="M301.188 255.333C306.801 255.333 311.352 250.783 311.352 245.169C311.352 239.556 306.801 235.006 301.188 235.006C295.574 235.006 291.023 239.556 291.023 245.169C291.023 250.783 295.574 255.333 301.188 255.333Z" fill="#E8F5FF"/>
<path d="M356.318 323.081C355.473 323.082 354.628 323.038 353.788 322.948C341.947 323.646 330.281 319.828 321.144 312.266C309.126 302.147 302.307 285.792 300.903 263.637L303.433 263.479C304.787 284.919 311.289 300.686 322.775 310.337C336.805 322.132 353.497 320.456 353.661 320.456H353.801H353.94C356.696 320.812 359.496 320.541 362.133 319.665C364.77 318.789 367.176 317.33 369.171 315.397C380.676 304.689 384.124 279.758 383.599 266.559C382.966 251.69 388.336 209.139 394.731 200.702C400.329 193.309 403.801 159.985 403.839 159.649L403.934 158.701L404.87 158.536C404.927 158.536 410.392 157.499 411.075 153.414C411.961 148.088 427.837 134.168 429.64 132.593L431.291 134.491C424.731 140.183 414.111 150.479 413.58 153.825C412.808 158.454 408.273 160.225 406.275 160.782C405.642 166.322 402.309 194.877 396.787 202.207C391.132 209.676 385.496 250.697 386.129 266.439C386.673 280.087 383.023 305.942 370.898 317.225C366.993 321.012 361.758 323.115 356.318 323.081Z" fill="#353146"/>
<g opacity="0.1">
<path opacity="0.1" d="M459.248 64.8071C460.286 60.9745 461.538 57.1165 462.411 53.2333C461.367 57.1355 460.109 60.9745 459.248 64.8071Z" fill="black"/>
<path opacity="0.1" d="M448.666 94.9244C447.401 92.148 448.078 88.9351 448.103 85.8867C448.128 82.8383 447.003 79.2713 444.068 78.4175C438.198 76.7794 434.15 87.7271 428.381 85.7476C423.954 84.236 425.124 77.5257 422.568 73.6488C420.551 70.5751 416.509 69.715 413.371 67.7923C406.679 63.6877 406.882 57.1229 403.782 50.9122C400.525 44.398 393.662 46.3206 387.691 50.1659C383.156 53.0878 379.253 57.0027 374.408 59.3364C370.215 61.354 365.502 62.0876 360.853 62.1951C355.192 62.3279 349.031 61.3223 345.141 57.2114C342.143 54.0492 341.062 49.4133 341.682 45.0684C341.574 45.3656 341.479 45.6629 341.384 45.9601C339.866 50.9375 340.752 56.7877 344.3 60.5697C348.19 64.6806 354.351 65.6799 360.012 65.5534C364.667 65.4459 369.373 64.7123 373.573 62.6948C378.431 60.3547 382.334 56.4461 386.856 53.5242C392.827 49.6789 399.696 47.7563 402.947 54.2705C406.047 60.4812 405.851 67.046 412.537 71.1506C415.699 73.048 419.716 73.9334 421.74 77.0071C424.27 80.8967 423.15 87.5943 427.553 89.1059C433.315 91.0791 437.363 80.1377 443.233 81.7758C446.168 82.598 447.3 86.2029 447.268 89.245C447.237 92.2871 446.579 95.5063 447.831 98.2827C452.695 98.0614 458.711 97.0178 460.121 92.3377C460.315 91.6661 460.405 90.9685 460.387 90.2696C458.331 93.8176 453.043 94.7284 448.666 94.9244Z" fill="black"/>
</g>
<path opacity="0.1" d="M562.982 250.76L570.325 258.527C570.325 258.527 576.201 301.325 579.136 305.328C582.071 309.332 589.004 325.257 582.495 337.216C582.495 337.216 580.395 343.724 581.654 346.45C582.912 349.176 572.216 362.818 572.216 362.818C572.216 362.818 558.155 375.404 555.214 377.295C552.273 379.186 536.751 394.289 531.507 394.497C526.264 394.706 524.55 401.214 524.55 401.214L494.96 402.264C494.96 402.264 478.616 401.41 475.061 403.718C475.061 403.718 476.959 378.749 458.698 362.381L481.987 353.989C481.987 353.989 490.805 350.194 493.531 346.229C495.246 343.798 497.679 341.964 500.489 340.986C500.489 340.986 506.991 336.369 507.2 333.852C507.408 331.334 515.15 328.248 515.15 328.248L510.767 290.839L513.076 228.732C513.076 228.732 520.419 176.694 535.948 179.635C551.476 182.576 562.982 250.76 562.982 250.76Z" fill="black"/>
<path d="M565.512 250.76L572.855 258.527C572.855 258.527 578.731 301.325 581.666 305.328C584.601 309.332 591.534 325.257 585.025 337.216C585.025 337.216 582.931 343.724 584.19 346.45C585.449 349.176 574.746 362.818 574.746 362.818C574.746 362.818 560.685 375.404 557.744 377.295C554.803 379.186 539.281 394.289 534.037 394.497C528.794 394.706 527.08 401.214 527.08 401.214L497.49 402.264C497.49 402.264 481.133 401.41 477.591 403.718C477.591 403.718 479.489 378.749 461.228 362.381L484.517 353.989C484.517 353.989 493.335 350.194 496.061 346.229C497.776 343.798 500.209 341.964 503.019 340.986C503.019 340.986 509.521 336.369 509.73 333.852C509.938 331.334 517.68 328.248 517.68 328.248L513.297 290.839L515.606 228.732C515.606 228.732 522.949 176.694 538.478 179.635C554.006 182.576 565.512 250.76 565.512 250.76Z" fill="#E8F5FF"/>
<path opacity="0.1" d="M538.212 313.499C538.212 313.499 559.825 307.807 565.493 314.764C571.16 321.721 538.212 313.499 538.212 313.499Z" fill="black"/>
<path opacity="0.1" d="M533.177 323.043C540.521 328.185 563.184 328.394 563.184 328.394L533.177 323.043Z" fill="black"/>
<path opacity="0.1" d="M544.297 348.746C544.929 348.955 559.876 364.905 566.151 360.079C572.425 355.254 544.297 348.746 544.297 348.746Z" fill="black"/>
<path opacity="0.1" d="M343.003 214.881C343.003 214.881 347.393 245.1 345.23 257.407C343.067 269.715 350.961 284.963 350.961 284.963L343.003 214.881Z" fill="black"/>
<path d="M245.823 227.17C240.763 231.135 237.069 240.521 234.393 250.836C229.725 268.829 228.201 289.694 228.201 289.694C228.201 289.694 187.909 280.46 190.844 276.267C192.691 273.63 190.212 253.758 188.143 239.351C186.91 230.838 185.809 224.229 185.809 224.229C185.809 224.229 259.675 216.254 245.823 227.17Z" fill="#FFCCD0"/>
<path opacity="0.1" d="M245.823 226.329C240.763 230.301 237.069 239.68 234.393 249.995C226.366 252.432 217.828 252.652 209.686 250.631C201.543 248.61 194.099 244.424 188.143 238.516C186.91 229.997 185.809 223.388 185.809 223.388C185.809 223.388 259.675 215.419 245.823 226.329Z" fill="black"/>
<path d="M267.481 203.725C267.485 214.725 263.597 225.372 256.505 233.782C249.413 242.192 239.574 247.821 228.73 249.675C217.885 251.529 206.735 249.487 197.252 243.911C187.768 238.334 180.564 229.583 176.913 219.206C173.262 208.829 173.401 197.495 177.304 187.211C181.207 176.926 188.623 168.353 198.239 163.01C207.856 157.667 219.053 155.898 229.849 158.015C240.644 160.133 250.343 166.001 257.227 174.582C263.862 182.847 267.479 193.127 267.481 203.725V203.725Z" fill="#FFCCD0"/>
<path opacity="0.1" d="M304.217 495.006H290.934L289.815 471.549L288.645 447.269C288.645 447.269 291.662 446.82 296.469 446.15L298.411 445.89H298.569C299.619 450.817 300.656 455.877 301.656 460.93C303.319 469.901 304.185 479.002 304.243 488.125C304.243 488.758 304.243 489.39 304.243 489.985C304.281 491.673 304.243 493.362 304.217 495.006Z" fill="black"/>
<path d="M301.668 495.006H135.088C135.809 493.368 136.289 492.375 136.289 492.375C136.289 492.375 149.617 434.076 156.391 409.41C156.393 409.389 156.393 409.368 156.391 409.347C157.237 405.997 158.259 402.693 159.452 399.449V399.449C159.529 399.229 159.629 399.017 159.75 398.817C163.102 393.365 167.302 387.49 161.426 379.097C155.55 370.705 157.631 333.776 157.631 333.776C157.631 333.776 164.765 302.299 172.318 285.513C173.464 282.914 175.091 280.553 177.112 278.557C177.77 277.914 178.471 277.318 179.212 276.773V276.773C179.775 276.35 180.363 275.959 180.971 275.603L181.091 275.527C184.263 273.729 187.786 272.635 191.42 272.321C194.001 272.051 196.606 272.123 199.168 272.536C211.414 274.332 221.218 277.336 229.011 280.757C250.13 290.035 256.525 302.469 256.652 302.729L256.702 302.836C257.55 304.816 269.947 333.757 274.413 347.26C275.57 350.776 276.203 353.249 275.95 353.926C274.685 357.278 285.602 399.241 285.602 399.241C285.602 399.241 290.662 419.479 295.723 443.202C295.944 444.189 296.153 445.176 296.355 446.175C297.26 450.482 298.158 454.871 299.024 459.254C300.703 468.287 301.569 477.452 301.611 486.639C301.704 489.502 301.723 492.291 301.668 495.006Z" fill="#FF748E"/>
<path opacity="0.1" d="M190.427 257.888C190.427 257.888 178.934 253.461 179.073 260.177C179.212 266.894 181.875 270.107 181.034 271.087C180.193 272.068 181.451 277.943 181.451 277.943C181.451 277.943 196.98 277.943 204.115 281.156C211.249 284.369 237.55 290.807 240.908 292.768C244.267 294.728 256.721 303.519 256.721 303.519L257.841 286.873C257.841 286.873 244.969 276.242 223.849 270.79C202.729 265.338 190.427 257.888 190.427 257.888Z" fill="black"/>
<path d="M190.427 257.047C190.427 257.047 178.934 252.62 179.073 259.336C179.212 266.053 181.875 269.266 181.034 270.246C180.193 271.226 181.451 277.102 181.451 277.102C181.451 277.102 196.98 277.102 204.115 280.321C211.249 283.54 237.55 289.972 240.908 291.927C244.267 293.881 256.721 302.678 256.721 302.678L257.854 286.083C257.854 286.083 244.982 275.451 223.862 269.999C202.742 264.548 190.427 257.047 190.427 257.047Z" fill="#FF748E"/>
<path opacity="0.1" d="M225.12 297.106C225.12 297.106 247.082 320.88 245.962 327.464C244.842 334.048 225.12 297.106 225.12 297.106Z" fill="black"/>
<path opacity="0.1" d="M189.446 382.987C189.446 382.987 173.349 397.818 168.605 398.659C163.861 399.5 172.242 402.295 177.694 400.063C183.146 397.83 194.772 391.955 194.772 391.955L189.446 382.987Z" fill="black"/>
<path d="M308.209 495.006H270.668C265.418 490.453 260.453 486.234 257.291 483.698C252.23 479.638 248.581 473.661 246.253 468.855C245.728 467.76 245.273 466.736 244.887 465.806C244.196 464.205 243.588 462.569 243.065 460.905L270.865 444.398C272.401 445.704 273.844 447.116 275.185 448.622L275.52 449.008C277.063 450.83 278.423 452.898 278.543 454.593C278.682 456.566 284.173 464.2 289.783 471.53C295.476 478.986 301.308 486.114 301.694 486.595C301.694 486.595 302.655 487.904 304.224 489.915C305.331 491.37 306.697 493.115 308.209 495.006Z" fill="#FFCCD0"/>
<path opacity="0.1" d="M257.227 174.582C255.893 177.592 254.697 180.716 254.52 184.068C254.02 193.745 254.83 215.381 244.115 220.238C238.808 222.629 233.128 217.38 227.309 217.253C223.122 217.164 219.282 219.821 216.727 223.141C214.172 226.462 212.584 230.402 210.731 234.158C209.044 237.568 207.1 240.845 204.918 243.961C204.265 244.915 203.547 245.822 202.767 246.675C196.234 243.918 190.416 239.707 185.756 234.361C181.097 229.016 177.72 222.677 175.882 215.829C174.043 208.981 173.793 201.803 175.149 194.844C176.505 187.884 179.432 181.326 183.707 175.668C187.983 170.011 193.493 165.404 199.818 162.199C206.143 158.993 213.117 157.274 220.208 157.172C227.299 157.069 234.319 158.587 240.734 161.608C247.15 164.63 252.791 169.075 257.227 174.607V174.582Z" fill="black"/>
<path d="M253.679 182.361C253.173 192.037 253.989 213.673 243.268 218.524C237.961 220.915 232.281 215.672 226.461 215.545C222.274 215.451 218.441 218.113 215.879 221.427C213.318 224.741 211.743 228.688 209.883 232.451C208.196 235.86 206.252 239.137 204.07 242.254C202.767 244.101 201.325 245.954 199.32 246.991C195.828 248.812 191.597 247.788 187.852 246.618C182.995 245.087 178.209 243.363 173.494 241.444C173.602 240.733 173.657 240.014 173.659 239.294C173.519 239.56 173.368 239.806 173.216 240.072L172.919 240.59C172.381 241.539 171.856 242.488 171.375 243.462C171.192 243.835 171.015 244.221 170.857 244.607C170.22 246.042 169.821 247.571 169.674 249.135C169.351 253.353 171.432 257.357 173.279 261.151C180.382 275.831 184.772 292.995 179.427 308.395C177.112 315.093 173.102 321.044 170.173 327.514C165.054 338.974 163.547 351.72 165.853 364.057C167.314 371.723 170.243 379.312 169.522 387.085C168.257 400.461 156.72 410.416 145.164 417.259C138.921 420.94 131.28 424.216 124.651 421.307C128.876 416.374 129.964 409.55 130.875 403.111C133.367 385.55 135.865 367.981 138.37 350.403C139.37 343.408 140.367 336.413 141.362 329.418C143.222 316.276 145.107 302.988 143.943 289.763C143.095 280.017 140.704 269.671 144.93 260.848C147.162 256.174 151.141 252.303 152.381 247.269C153.399 243.177 152.45 238.826 153.121 234.658C153.488 232.762 154.109 230.924 154.968 229.194C156.061 226.846 157.489 224.669 159.206 222.73C157.51 222.237 155.929 221.56 154.968 220.143C157.687 218.372 158.099 214.382 156.865 211.384C155.632 208.386 153.165 206.103 150.945 203.738C148.725 201.372 146.587 198.615 146.308 195.389C145.771 189.248 151.906 184.492 152.988 178.433C154.082 172.267 149.756 166.271 150.104 160.029C150.508 152.484 157.441 147 164.285 143.819C174.612 139.039 186.021 137.075 197.353 138.127C206.575 139 215.5 141.852 224.697 142.959C230.244 143.592 235.867 143.655 241.376 144.629C246.886 145.603 252.408 147.658 256.285 151.7C266.506 162.356 254.261 171.128 253.679 182.361Z" fill="#FFE0D0"/>
<path opacity="0.1" d="M245.127 468.861C241.901 467.463 236.032 468.298 225.955 465.231C215.879 462.163 213.938 448.3 213.938 448.3V448.256C213.817 447.939 212.881 445.878 206.543 438.655C199.541 430.68 184.405 390.399 184.405 390.399C184.405 390.399 170.983 375.985 171.407 370.673C171.831 365.36 169.022 351.225 169.301 335.414C169.579 319.603 199.516 309.116 199.516 309.116C257.158 298.902 243.584 365.348 242.047 370.382C240.51 375.416 248.486 389.014 248.486 389.014C247.36 394.934 253.103 404.098 253.103 404.098C253.103 404.098 254.495 412.206 254.779 415.286C254.795 415.428 254.827 415.568 254.874 415.703C255.798 418.606 263.325 421.237 266.386 422.837C269.606 424.52 279.96 439.205 279.96 439.205C282.193 449.989 248.34 470.278 245.127 468.861Z" fill="black"/>
<path d="M246.803 466.331C243.584 464.927 237.708 465.768 227.638 462.694C217.568 459.621 215.62 445.77 215.62 445.77V445.726C215.506 445.403 214.564 443.348 208.226 436.125C201.224 428.15 186.088 387.863 186.088 387.863C186.088 387.863 172.666 373.456 173.083 368.143C173.5 362.831 170.705 348.695 170.983 332.897C171.261 317.098 201.18 306.618 201.18 306.618C258.821 296.404 245.247 362.85 243.71 367.884C242.173 372.918 250.149 386.516 250.149 386.516C249.023 392.436 254.767 401.6 254.767 401.6C254.767 401.6 256.158 409.708 256.449 412.788C256.46 412.93 256.49 413.071 256.538 413.205C257.461 416.108 264.988 418.739 268.056 420.339C271.269 422.015 281.63 436.707 281.63 436.707C283.875 447.471 250.023 467.76 246.803 466.331Z" fill="#FF748E"/>
<path opacity="0.1" d="M202.318 341.308C202.318 341.308 227.499 367.871 234.071 367.871C240.643 367.871 202.318 341.308 202.318 341.308Z" fill="black"/>
<path d="M246.803 466.331C243.584 464.927 237.708 465.768 227.638 462.694C217.568 459.621 215.62 445.77 215.62 445.77V445.726C222.293 441.299 239.194 428.795 245.855 424.222C250.542 421.016 254.368 416.304 256.607 413.18C257.531 416.083 265.058 418.714 268.126 420.314C271.339 421.99 281.7 436.682 281.7 436.682C283.875 447.471 250.023 467.76 246.803 466.331Z" fill="#FF748E"/>
<g opacity="0.1">
<path opacity="0.1" d="M155.005 220.213C155.037 220.264 155.081 220.308 155.119 220.358C155.309 220.118 155.505 219.878 155.708 219.65C155.492 219.86 155.257 220.048 155.005 220.213V220.213Z" fill="black"/>
<path opacity="0.1" d="M169.68 249.205C169.946 245.694 171.824 242.602 173.583 239.515C172.431 239.073 171.28 238.624 170.142 238.156C170.25 237.446 170.305 236.729 170.306 236.012C168.529 239.174 166.593 242.286 166.321 245.846C165.999 250.071 168.08 254.068 169.927 257.863C177.036 272.536 181.42 289.7 176.075 305.107C173.753 311.798 169.75 317.756 166.821 324.226C161.704 335.683 160.199 348.428 162.507 360.763C163.956 368.434 166.891 376.017 166.17 383.79C164.904 397.166 153.374 407.121 141.811 413.958C137.086 416.753 131.564 419.315 126.283 419.131C125.794 419.918 125.248 420.669 124.651 421.377C131.286 424.305 138.921 421.01 145.164 417.316C156.732 410.486 168.288 400.556 169.554 387.155C170.275 379.382 167.34 371.799 165.885 364.127C163.576 351.794 165.076 339.05 170.186 327.59C173.096 321.127 177.144 315.163 179.44 308.471C184.785 293.065 180.395 275.9 173.292 261.227C171.451 257.407 169.357 253.429 169.68 249.205Z" fill="black"/>
<path opacity="0.1" d="M256.272 151.776C255.65 151.137 254.982 150.545 254.273 150.005C261.94 159.947 250.87 168.396 250.32 179.097C249.827 188.774 250.636 210.416 239.915 215.261C234.615 217.658 228.928 212.409 223.115 212.282C218.922 212.193 215.089 214.856 212.527 218.17C209.965 221.484 208.39 225.431 206.537 229.187C204.846 232.597 202.901 235.874 200.718 238.99C199.453 240.843 197.973 242.69 195.961 243.734C192.482 245.549 188.251 244.531 184.5 243.354C180.852 242.207 177.239 240.943 173.659 239.56C173.651 240.218 173.596 240.876 173.494 241.527C178.213 243.449 183.001 245.174 187.859 246.7C191.603 247.876 195.835 248.895 199.32 247.079C201.325 246.036 202.78 244.183 204.077 242.33C206.261 239.217 208.205 235.942 209.889 232.533C211.749 228.776 213.318 224.824 215.886 221.509C218.454 218.195 222.281 215.539 226.468 215.628C232.287 215.754 237.973 221.004 243.274 218.607C253.995 213.762 253.179 192.12 253.679 182.443C254.261 171.192 266.506 162.426 256.272 151.776Z" fill="black"/>
</g>
<path opacity="0.1" d="M172.925 240.597C172.387 241.545 171.862 242.494 171.382 243.468C171.198 243.841 171.021 244.227 170.863 244.613C167.549 241.273 159.478 233.336 154.974 230.876C156.069 228.529 157.496 226.352 159.212 224.412C159.212 224.412 169.946 230.085 172.925 240.597Z" fill="black"/>
<path d="M173.222 240.078C170.736 228.827 159.212 222.736 159.212 222.736C157.495 224.675 156.067 226.852 154.974 229.2C159.724 231.799 168.478 240.515 171.382 243.468L173.222 240.078Z" fill="#FF748E"/>
</g>
<defs>
<linearGradient id="paint0_linear_2_147" x1="461.759" y1="60.3421" x2="461.759" y2="48.7177" gradientUnits="userSpaceOnUse">
<stop stop-color="#808080" stop-opacity="0.25"/>
<stop offset="0.54" stop-color="#808080" stop-opacity="0.12"/>
<stop offset="1" stop-color="#808080" stop-opacity="0.1"/>
</linearGradient>
<linearGradient id="paint1_linear_2_147" x1="290183" y1="416471" x2="290183" y2="29037.3" gradientUnits="userSpaceOnUse">
<stop stop-color="#808080" stop-opacity="0.25"/>
<stop offset="0.54" stop-color="#808080" stop-opacity="0.12"/>
<stop offset="1" stop-color="#808080" stop-opacity="0.1"/>
</linearGradient>
<clipPath id="clip0_2_147">
<rect width="687" height="495" fill="white"/>
</clipPath>
</defs>
</svg>
