<svg width="863" height="643" viewBox="0 0 863 643" fill="none" xmlns="http://www.w3.org/2000/svg">
<path d="M862.632 564.852H0V565.283H862.632V564.852Z" fill="#EBEBEB"/>
<path d="M776.196 592.611H719.056V593.042H776.196V592.611Z" fill="#EBEBEB"/>
<path d="M571.442 597.304H556.449V597.735H571.442V597.304Z" fill="#EBEBEB"/>
<path d="M717.33 576.601H684.223V577.032H717.33V576.601Z" fill="#EBEBEB"/>
<path d="M165.021 579.5H90.5068V579.931H165.021V579.5Z" fill="#EBEBEB"/>
<path d="M191.314 579.5H180.394V579.931H191.314V579.5Z" fill="#EBEBEB"/>
<path d="M388.443 586.78H226.82V587.211H388.443V586.78Z" fill="#EBEBEB"/>
<path d="M408.888 487.905H75.7569C73.1471 487.9 70.6459 486.86 68.8021 485.013C66.9584 483.166 65.9228 480.663 65.9229 478.054V9.765C65.9456 7.17024 66.9911 4.68923 68.8324 2.86087C70.6737 1.0325 73.162 0.00444495 75.7569 0H408.888C411.501 0 414.007 1.0379 415.854 2.88537C417.702 4.73284 418.739 7.23854 418.739 9.85126V478.054C418.739 480.666 417.702 483.172 415.854 485.019C414.007 486.867 411.501 487.905 408.888 487.905ZM75.7569 0.345054C73.2615 0.349624 70.87 1.34409 69.1071 3.11018C67.3443 4.87627 66.3542 7.26966 66.3542 9.765V478.054C66.3542 480.549 67.3443 482.942 69.1071 484.708C70.87 486.474 73.2615 487.469 75.7569 487.473H408.888C411.385 487.469 413.778 486.475 415.544 484.709C417.31 482.944 418.304 480.55 418.308 478.054V9.765C418.304 7.26807 417.31 4.87472 415.544 3.10913C413.778 1.34353 411.385 0.349615 408.888 0.345054H75.7569Z" fill="#EBEBEB"/>
<path d="M782.08 487.905H448.931C446.32 487.9 443.817 486.861 441.971 485.014C440.124 483.168 439.085 480.665 439.08 478.054V9.765C439.107 7.16867 440.157 4.68768 442.001 2.85979C443.845 1.0319 446.335 0.00439647 448.931 0H782.08C784.672 0.00897913 787.156 1.03904 788.993 2.86692C790.831 4.6948 791.874 7.17322 791.897 9.765V478.054C791.897 480.66 790.864 483.161 789.024 485.007C787.184 486.854 784.687 487.896 782.08 487.905ZM448.931 0.345054C446.434 0.349615 444.041 1.34353 442.275 3.10913C440.51 4.87472 439.516 7.26807 439.511 9.765V478.054C439.516 480.55 440.51 482.944 442.275 484.709C444.041 486.475 446.434 487.469 448.931 487.473H782.08C784.577 487.469 786.97 486.475 788.736 484.709C790.501 482.944 791.495 480.55 791.5 478.054V9.765C791.495 7.26807 790.501 4.87472 788.736 3.10913C786.97 1.34353 784.577 0.349615 782.08 0.345054H448.931Z" fill="#EBEBEB"/>
<path d="M330.595 78.0508H167.265V445.998H330.595V78.0508Z" fill="#F5F5F5"/>
<path d="M324.436 439.097V84.9521L173.423 84.9521L173.423 439.097H324.436Z" fill="#FAFAFA"/>
<path d="M250.663 83.1753H247.195V442.548H250.663V83.1753Z" fill="#F5F5F5"/>
<path d="M334.357 73.2549H163.486V90.5765H334.357V73.2549Z" fill="#F5F5F5"/>
<path d="M334.357 92.4915H163.486V94.5445H334.357V92.4915Z" fill="#F5F5F5"/>
<path d="M334.357 97.1497H163.486V99.2027H334.357V97.1497Z" fill="#F5F5F5"/>
<path d="M334.357 101.808H163.486V103.861H334.357V101.808Z" fill="#F5F5F5"/>
<path d="M334.357 106.466H163.486V108.519H334.357V106.466Z" fill="#F5F5F5"/>
<path d="M334.357 111.124H163.486V113.177H334.357V111.124Z" fill="#F5F5F5"/>
<path d="M334.357 115.783H163.486V117.836H334.357V115.783Z" fill="#F5F5F5"/>
<path d="M334.357 120.441H163.486V122.494H334.357V120.441Z" fill="#F5F5F5"/>
<path d="M334.357 125.099H163.486V127.152H334.357V125.099Z" fill="#F5F5F5"/>
<path d="M334.357 129.757H163.486V131.81H334.357V129.757Z" fill="#F5F5F5"/>
<path d="M334.357 134.415H163.486V136.468H334.357V134.415Z" fill="#F5F5F5"/>
<path d="M334.357 139.073H163.486V141.127H334.357V139.073Z" fill="#F5F5F5"/>
<path d="M334.357 143.732H163.486V145.785H334.357V143.732Z" fill="#F5F5F5"/>
<path d="M334.357 148.39H163.486V150.443H334.357V148.39Z" fill="#F5F5F5"/>
<path d="M334.357 153.048H163.486V155.101H334.357V153.048Z" fill="#F5F5F5"/>
<path d="M334.357 157.707H163.486V159.76H334.357V157.707Z" fill="#F5F5F5"/>
<path d="M334.357 162.382H163.486V164.435H334.357V162.382Z" fill="#F5F5F5"/>
<path d="M334.357 167.04H163.486V169.093H334.357V167.04Z" fill="#F5F5F5"/>
<path d="M334.357 171.698H163.486V173.752H334.357V171.698Z" fill="#F5F5F5"/>
<path d="M523.963 78.0508H360.632V445.998H523.963V78.0508Z" fill="#F5F5F5"/>
<path d="M517.82 439.097V84.9521L366.808 84.9521V439.097H517.82Z" fill="#FAFAFA"/>
<path d="M444.031 83.1753H440.563V442.548H444.031V83.1753Z" fill="#F5F5F5"/>
<path d="M527.741 73.2549H356.871V90.5765H527.741V73.2549Z" fill="#F5F5F5"/>
<path d="M527.741 92.4915H356.871V94.5445H527.741V92.4915Z" fill="#F5F5F5"/>
<path d="M527.741 97.1497H356.871V99.2027H527.741V97.1497Z" fill="#F5F5F5"/>
<path d="M527.741 101.808H356.871V103.861H527.741V101.808Z" fill="#F5F5F5"/>
<path d="M527.741 106.466H356.871V108.519H527.741V106.466Z" fill="#F5F5F5"/>
<path d="M527.741 111.124H356.871V113.177H527.741V111.124Z" fill="#F5F5F5"/>
<path d="M527.741 115.783H356.871V117.836H527.741V115.783Z" fill="#F5F5F5"/>
<path d="M527.741 120.441H356.871V122.494H527.741V120.441Z" fill="#F5F5F5"/>
<path d="M527.741 125.099H356.871V127.152H527.741V125.099Z" fill="#F5F5F5"/>
<path d="M527.741 129.757H356.871V131.81H527.741V129.757Z" fill="#F5F5F5"/>
<path d="M527.741 134.415H356.871V136.468H527.741V134.415Z" fill="#F5F5F5"/>
<path d="M527.741 139.073H356.871V141.127H527.741V139.073Z" fill="#F5F5F5"/>
<path d="M527.741 143.732H356.871V145.785H527.741V143.732Z" fill="#F5F5F5"/>
<path d="M527.741 148.39H356.871V150.443H527.741V148.39Z" fill="#F5F5F5"/>
<path d="M527.741 153.048H356.871V155.101H527.741V153.048Z" fill="#F5F5F5"/>
<path d="M527.741 157.707H356.871V159.76H527.741V157.707Z" fill="#F5F5F5"/>
<path d="M527.741 162.382H356.871V164.435H527.741V162.382Z" fill="#F5F5F5"/>
<path d="M527.741 167.04H356.871V169.093H527.741V167.04Z" fill="#F5F5F5"/>
<path d="M527.741 171.698H356.871V173.752H527.741V171.698Z" fill="#F5F5F5"/>
<path d="M717.347 78.0508H554.017V445.998H717.347V78.0508Z" fill="#F5F5F5"/>
<path d="M711.188 439.097V84.9521L560.176 84.9521V439.097H711.188Z" fill="#FAFAFA"/>
<path d="M637.416 83.1753H633.948V442.548H637.416V83.1753Z" fill="#F5F5F5"/>
<path d="M721.108 73.2549H550.238V90.5765H721.108V73.2549Z" fill="#F5F5F5"/>
<path d="M721.108 92.4915H550.238V94.5445H721.108V92.4915Z" fill="#F5F5F5"/>
<path d="M721.108 97.1497H550.238V99.2027H721.108V97.1497Z" fill="#F5F5F5"/>
<path d="M721.108 101.808H550.238V103.861H721.108V101.808Z" fill="#F5F5F5"/>
<path d="M721.108 106.466H550.238V108.519H721.108V106.466Z" fill="#F5F5F5"/>
<path d="M721.108 111.124H550.238V113.177H721.108V111.124Z" fill="#F5F5F5"/>
<path d="M721.108 115.783H550.238V117.836H721.108V115.783Z" fill="#F5F5F5"/>
<path d="M721.108 120.441H550.238V122.494H721.108V120.441Z" fill="#F5F5F5"/>
<path d="M721.108 125.099H550.238V127.152H721.108V125.099Z" fill="#F5F5F5"/>
<path d="M721.108 129.757H550.238V131.81H721.108V129.757Z" fill="#F5F5F5"/>
<path d="M721.108 134.415H550.238V136.468H721.108V134.415Z" fill="#F5F5F5"/>
<path d="M721.108 139.073H550.238V141.127H721.108V139.073Z" fill="#F5F5F5"/>
<path d="M721.108 143.732H550.238V145.785H721.108V143.732Z" fill="#F5F5F5"/>
<path d="M721.108 148.39H550.238V150.443H721.108V148.39Z" fill="#F5F5F5"/>
<path d="M721.108 153.048H550.238V155.101H721.108V153.048Z" fill="#F5F5F5"/>
<path d="M721.108 157.707H550.238V159.76H721.108V157.707Z" fill="#F5F5F5"/>
<path d="M721.108 162.382H550.238V164.435H721.108V162.382Z" fill="#F5F5F5"/>
<path d="M721.108 167.04H550.238V169.093H721.108V167.04Z" fill="#F5F5F5"/>
<path d="M721.108 171.698H550.238V173.752H721.108V171.698Z" fill="#F5F5F5"/>
<path d="M710.55 519.425C710.55 519.425 719.28 500.361 709.308 481.573C699.336 462.785 696.42 458.368 702.787 454.504C709.153 450.639 712.069 469.548 712.069 469.548C715.223 461.015 715.549 451.694 713 442.962C708.583 429.367 705.806 407.214 711.844 404.851C717.883 402.487 713 432.455 718.262 442.703C720.949 435.523 722.689 428.024 723.438 420.395C724.163 409.474 723.024 392.032 727.803 387.615C732.582 383.199 735.636 386.235 730.943 410.337C728.123 424.735 726.564 439.352 726.285 454.021C726.285 454.021 736.636 422.414 743.624 421.482C750.611 420.551 750.525 430.799 744.607 439.684C738.689 448.569 727.165 464.459 725.284 472.654C725.284 472.654 736.671 448.862 746.902 456.16C757.132 463.458 737.982 477.812 729.459 483.005C720.936 488.198 715.001 520.737 715.001 520.737L710.55 519.425Z" fill="#E0E0E0"/>
<path d="M717.451 527.241C717.451 527.241 708.946 508.056 719.177 489.423C729.407 470.79 732.34 466.391 726.078 462.457C719.815 458.524 716.623 477.346 716.623 477.346C716.623 477.346 711.447 464.269 716.002 450.743C720.557 437.217 723.645 415.116 717.624 412.649C711.603 410.182 716.14 440.253 710.723 450.398C708.135 443.164 706.5 435.625 705.858 427.969C705.271 417.048 706.617 399.623 701.889 395.086C697.162 390.548 694.074 393.585 698.439 417.756C701.084 432.192 702.469 446.832 702.58 461.508C702.58 461.508 692.59 429.746 685.638 428.728C678.685 427.71 678.581 437.941 684.43 446.913C690.278 455.884 701.579 471.963 703.408 480.176C703.408 480.176 692.314 456.212 681.997 463.354C671.68 470.497 690.624 485.145 699.112 490.458C707.6 495.772 713.121 528.414 713.121 528.414L717.451 527.241Z" fill="#EBEBEB"/>
<path d="M678.201 513.577H748.488L742.795 563.851H683.895L678.201 513.577Z" fill="#EBEBEB"/>
<path d="M151.409 509.988C151.151 508.263 145.337 468.082 156.999 454.193C158.164 452.732 159.637 451.546 161.313 450.72C162.989 449.894 164.827 449.448 166.695 449.414C190.262 448.862 193.489 467.806 193.523 467.995L190.728 468.427C190.625 467.737 187.83 451.726 166.764 452.226C165.294 452.247 163.848 452.598 162.531 453.252C161.214 453.906 160.061 454.846 159.156 456.005C148.287 468.927 154.135 509.16 154.187 509.574L151.409 509.988Z" fill="#EBEBEB"/>
<path d="M149.995 508.16L147.182 508.073C147.182 507.694 148.114 471.015 130.033 463.441C112.332 456.022 104.361 471.273 104.034 471.929L101.515 470.669C101.618 470.48 110.952 452.399 131.12 460.853C150.978 469.169 150.098 506.572 149.995 508.16Z" fill="#EBEBEB"/>
<path d="M150.098 511.041C150.098 510.454 149.926 452.382 138.625 435.474C127.773 419.188 110.244 426.848 109.503 427.193L108.347 424.639C108.554 424.536 128.757 415.616 140.971 433.921C152.738 451.588 152.91 508.608 152.91 511.041H150.098Z" fill="#EBEBEB"/>
<path d="M170.077 450.812C170.077 450.812 159.725 454.607 162.848 463.561C165.971 472.515 198.406 487.249 198.406 487.249C198.406 487.249 212.018 474.758 199.51 454.469C187.002 434.18 170.353 444.411 170.077 450.812Z" fill="#E0E0E0"/>
<path d="M138.021 432.421C138.021 432.421 145.336 431.644 144.749 427.245C144.163 422.845 116.352 411.338 99.8926 429.867C99.8926 429.867 110.399 447.913 125.582 448.138C140.764 448.362 138.021 432.421 138.021 432.421Z" fill="#E0E0E0"/>
<path d="M130.586 462.146C130.586 462.146 135.624 458.075 130.189 456.091C124.755 454.107 98.0475 454.676 97.7715 481.107C97.7715 481.107 128.826 486.283 132.708 476.207C136.59 466.132 130.586 462.146 130.586 462.146Z" fill="#E0E0E0"/>
<path d="M175.597 563.851H127.341L122.148 511.041H180.807L175.597 563.851Z" fill="#EBEBEB"/>
<path d="M183.378 505.209H119.561V516.872H183.378V505.209Z" fill="#E0E0E0"/>
<path d="M431.316 642.764C616.062 642.764 765.828 634.02 765.828 623.234C765.828 612.448 616.062 603.704 431.316 603.704C246.571 603.704 96.8047 612.448 96.8047 623.234C96.8047 634.02 246.571 642.764 431.316 642.764Z" fill="#F5F5F5"/>
<path d="M550.169 244.504C550.169 244.504 550.169 261.032 544.993 267.45C539.817 273.868 512.696 287.239 512.696 287.239C512.696 287.239 496.548 287.239 495.064 287.239C493.58 287.239 489.457 294.606 489.457 294.606L496.358 302.749C496.358 302.749 516.388 298.867 514.56 293.053C514.56 293.053 541.18 282.702 548.685 277.44C556.19 272.178 561.884 248.869 561.884 248.869L550.169 244.504Z" fill="#E4897B"/>
<path d="M558.985 197.387C550.945 194.472 546.373 249.559 546.373 249.559L567.076 256.788C567.076 256.788 574.512 203.064 558.985 197.387Z" fill="#407BFF"/>
<path opacity="0.4" d="M568.181 245.126C567.663 252.027 567.008 256.788 567.008 256.788L546.305 249.559C546.305 249.559 550.859 194.455 558.899 197.387C564.316 199.372 566.939 207.17 568.06 216.503C568.988 226.02 569.029 235.602 568.181 245.126Z" fill="white"/>
<path opacity="0.2" d="M568.181 245.126C558.572 233.825 564.731 213.847 564.731 213.847C565.983 214.538 567.108 215.437 568.061 216.504C568.989 226.02 569.029 235.602 568.181 245.126Z" fill="black"/>
<path d="M647.302 607.293H664.796C665.081 607.297 665.356 607.396 665.578 607.574C665.8 607.752 665.956 607.999 666.021 608.276L668.851 621.095C668.909 621.368 668.913 621.65 668.862 621.924C668.811 622.199 668.706 622.46 668.554 622.694C668.402 622.928 668.205 623.13 667.975 623.288C667.744 623.446 667.485 623.556 667.212 623.614H666.746C661.087 623.614 656.964 623.165 649.873 623.165C645.491 623.165 632.293 623.631 626.254 623.631C620.216 623.631 619.353 617.662 621.889 617.11C632.983 614.694 641.333 611.347 644.887 608.155C645.551 607.568 646.416 607.259 647.302 607.293Z" fill="#263238"/>
<path d="M573.15 606.793H590.627C590.913 606.791 591.191 606.887 591.414 607.066C591.638 607.246 591.792 607.496 591.852 607.776L594.698 620.595C594.77 620.907 594.769 621.23 594.695 621.542C594.622 621.853 594.478 622.143 594.274 622.39C594.071 622.637 593.814 622.833 593.522 622.965C593.231 623.096 592.913 623.159 592.593 623.148C586.935 623.062 582.811 622.717 575.703 622.717C571.338 622.717 558.14 623.166 552.084 623.166C546.029 623.166 545.183 617.196 547.737 616.661C558.83 614.246 567.18 610.882 570.734 607.707C571.391 607.101 572.257 606.773 573.15 606.793Z" fill="#263238"/>
<path opacity="0.1" d="M647.302 607.293H664.796C665.081 607.297 665.356 607.396 665.578 607.574C665.8 607.752 665.956 607.999 666.021 608.276L668.851 621.095C668.909 621.368 668.913 621.65 668.862 621.924C668.811 622.199 668.706 622.46 668.554 622.694C668.402 622.928 668.205 623.13 667.975 623.288C667.744 623.446 667.485 623.556 667.212 623.614H666.746C661.087 623.614 656.964 623.165 649.873 623.165C645.491 623.165 632.293 623.631 626.254 623.631C620.216 623.631 619.353 617.662 621.889 617.11C632.983 614.694 641.333 611.347 644.887 608.155C645.551 607.568 646.416 607.259 647.302 607.293Z" fill="white"/>
<path opacity="0.1" d="M573.15 606.793H590.627C590.913 606.791 591.191 606.887 591.414 607.066C591.638 607.246 591.792 607.496 591.852 607.776L594.698 620.595C594.77 620.907 594.769 621.23 594.695 621.542C594.622 621.853 594.478 622.143 594.274 622.39C594.071 622.637 593.814 622.833 593.522 622.965C593.231 623.096 592.913 623.159 592.593 623.148C586.935 623.062 582.811 622.717 575.703 622.717C571.338 622.717 558.14 623.166 552.084 623.166C546.029 623.166 545.183 617.196 547.737 616.661C558.83 614.246 567.18 610.882 570.734 607.707C571.391 607.101 572.257 606.773 573.15 606.793Z" fill="white"/>
<path d="M656.584 283.099H580.172C572.909 322.78 550.17 483.833 566.491 608.898H592.37C592.37 608.898 590.041 418.963 612.797 357.579C615.419 390.359 642.127 608.777 642.127 608.777H668.454C668.454 608.777 664.521 526.637 660.57 449.052C658.103 400.262 656.688 293.14 656.584 283.099Z" fill="#407BFF"/>
<path opacity="0.2" d="M656.584 283.099H580.172C572.909 322.78 550.17 483.833 566.491 608.898H592.37C592.37 608.898 590.041 418.963 612.797 357.579C615.419 390.359 642.127 608.777 642.127 608.777H668.454C668.454 608.777 664.521 526.637 660.57 449.052C658.103 400.262 656.688 293.14 656.584 283.099Z" fill="white"/>
<path opacity="0.2" d="M612.779 357.595C609.027 368.353 606.176 379.404 604.256 390.634C602.117 361.408 610.743 330.405 610.743 330.405L612.779 357.595Z" fill="black"/>
<path d="M656.79 285.497L578.549 287.55C580.723 242.693 559.571 214.381 556.88 200.614C556.685 199.66 556.872 198.669 557.401 197.852C557.931 197.036 558.76 196.46 559.71 196.249C563.591 195.403 567.577 194.679 571.614 194.058C589.809 191.478 608.17 190.243 626.546 190.366C634.689 190.366 632.895 190.607 632.895 190.607C646.697 201.442 657.584 260.687 656.79 285.497Z" fill="#407BFF"/>
<path opacity="0.4" d="M656.79 285.497L578.549 287.55C580.723 242.693 559.571 214.381 556.88 200.614C556.685 199.66 556.872 198.669 557.401 197.852C557.931 197.036 558.76 196.46 559.71 196.249C563.591 195.403 567.577 194.679 571.614 194.058C589.809 191.478 608.17 190.243 626.546 190.366C634.689 190.366 632.895 190.607 632.895 190.607C646.697 201.442 657.584 260.687 656.79 285.497Z" fill="white"/>
<path d="M608.725 192.988C607 203.254 590.834 213.536 590.834 213.536C590.834 213.536 582.536 204.375 581.863 197.388C582.896 196.376 583.769 195.212 584.451 193.937C584.966 193.009 585.234 191.963 585.227 190.901C585.034 188.903 584.378 186.977 583.312 185.276C582.749 184.271 582.12 183.302 581.432 182.378L592.698 168.403L595.286 165.177C595.406 166.143 595.562 167.213 595.751 168.334C596.201 170.84 596.776 173.322 597.477 175.77C599.443 182.982 602.946 190.4 608.725 192.988Z" fill="#E4897B"/>
<path opacity="0.2" d="M597.408 175.787C596.838 182.688 594.25 192.229 584.451 193.954C584.966 193.026 585.234 191.98 585.227 190.918C585.034 188.92 584.378 186.994 583.312 185.293C582.749 184.288 582.12 183.32 581.432 182.395L592.698 168.42C593.681 168.42 594.716 168.42 595.751 168.42C596.18 170.902 596.733 173.361 597.408 175.787Z" fill="black"/>
<path d="M551.825 139.867C551.825 139.867 551.566 159.363 562.711 165.315C573.856 171.267 568.957 135.709 568.957 135.709L551.825 139.867Z" fill="#263238"/>
<path d="M561.831 176.719C562.193 177.314 562.584 177.89 563.005 178.444C564.466 180.389 566.288 182.035 568.37 183.292C570.481 184.597 572.825 185.482 575.271 185.897C579.667 186.687 584.199 185.814 587.986 183.447C590.677 181.724 592.844 179.295 594.249 176.426C598.804 167.575 596.181 159.829 592.783 146.389C592.038 143.238 590.499 140.33 588.313 137.942C586.127 135.554 583.367 133.765 580.294 132.744C577.221 131.724 573.939 131.507 570.759 132.114C567.578 132.72 564.606 134.13 562.125 136.21C550.842 145.561 555.241 165.746 561.831 176.719Z" fill="#E4897B"/>
<path d="M573.892 156.43C574.288 157.465 573.892 158.552 573.219 158.776C572.546 159 571.683 158.293 571.321 157.223C570.959 156.154 571.321 155.101 571.994 154.877C572.667 154.653 573.529 155.274 573.892 156.43Z" fill="#263238"/>
<path d="M561.729 160.277C561.838 160.475 561.908 160.693 561.934 160.918C561.96 161.144 561.941 161.372 561.878 161.59C561.816 161.808 561.711 162.011 561.57 162.188C561.429 162.366 561.254 162.514 561.056 162.623C560.366 162.848 559.52 162.14 559.175 161.071C558.83 160.001 559.175 158.949 559.831 158.724C560.486 158.5 561.401 159.259 561.729 160.277Z" fill="#263238"/>
<path d="M565.749 159.587C565.511 163.278 564.762 166.919 563.523 170.404C564.431 170.704 565.393 170.8 566.342 170.683C567.291 170.567 568.202 170.242 569.01 169.731L565.749 159.587Z" fill="#DE5753"/>
<path d="M555.535 156.499C555.653 156.523 555.775 156.516 555.89 156.48C556.004 156.444 556.108 156.379 556.191 156.292C556.715 155.647 557.383 155.134 558.141 154.793C558.898 154.451 559.725 154.291 560.556 154.325C560.729 154.348 560.905 154.301 561.044 154.194C561.184 154.087 561.275 153.929 561.297 153.755C561.32 153.582 561.273 153.406 561.166 153.267C561.06 153.128 560.902 153.037 560.728 153.014C559.679 152.945 558.629 153.129 557.666 153.549C556.702 153.969 555.854 154.614 555.19 155.429C555.129 155.488 555.08 155.56 555.047 155.638C555.014 155.717 554.997 155.801 554.997 155.886C554.997 155.971 555.014 156.056 555.047 156.134C555.08 156.213 555.129 156.284 555.19 156.343C555.285 156.431 555.406 156.485 555.535 156.499Z" fill="#263238"/>
<path d="M574.754 150.806C574.879 150.757 574.987 150.673 575.065 150.564C575.099 150.485 575.117 150.399 575.118 150.313C575.119 150.227 575.103 150.141 575.071 150.061C575.039 149.981 574.992 149.908 574.931 149.846C574.871 149.784 574.799 149.735 574.72 149.701C573.758 149.267 572.706 149.07 571.652 149.127C570.598 149.184 569.573 149.494 568.664 150.029C568.592 150.078 568.531 150.14 568.484 150.212C568.436 150.284 568.403 150.365 568.387 150.45C568.371 150.535 568.372 150.623 568.39 150.707C568.408 150.792 568.442 150.872 568.491 150.944C568.54 151.015 568.602 151.076 568.674 151.124C568.747 151.171 568.828 151.204 568.913 151.22C568.998 151.236 569.085 151.235 569.17 151.217C569.254 151.2 569.335 151.165 569.406 151.116C570.137 150.717 570.95 150.492 571.782 150.459C572.614 150.426 573.442 150.586 574.202 150.926C574.297 150.95 574.396 150.951 574.492 150.93C574.588 150.909 574.678 150.867 574.754 150.806Z" fill="#263238"/>
<path d="M577.859 132.984L578.705 139.074C579.827 139.288 580.827 139.916 581.507 140.833C582.188 141.75 582.499 142.89 582.38 144.025C581.793 149.494 586.641 156.447 591.265 158.518C591.265 158.518 590.816 156.326 592.766 156.361C594.715 156.395 597.182 167.73 595.06 174.01C595.06 174.01 599.132 167.765 599.046 155.205C598.959 143.577 596.906 134.416 593.559 130.81L577.859 132.984Z" fill="#263238"/>
<path d="M601.961 155.394C601.442 158.84 599.581 161.941 596.785 164.021C593.058 166.729 589.573 163.779 589.246 159.414C588.987 155.515 590.574 149.304 594.991 148.355C599.407 147.406 602.547 151.15 601.961 155.394Z" fill="#E4897B"/>
<path d="M572.787 176.201C572.683 176.202 572.583 176.163 572.506 176.093C572.429 176.022 572.382 175.926 572.373 175.822C572.363 175.766 572.366 175.708 572.38 175.653C572.394 175.598 572.42 175.546 572.456 175.502C572.492 175.458 572.537 175.422 572.589 175.397C572.64 175.371 572.696 175.358 572.753 175.356C573.993 175.217 575.128 174.596 575.916 173.629C576.703 172.661 577.079 171.422 576.962 170.18C576.958 170.123 576.964 170.066 576.982 170.012C576.999 169.958 577.027 169.908 577.064 169.865C577.101 169.821 577.146 169.786 577.197 169.76C577.247 169.734 577.303 169.719 577.359 169.714C577.473 169.709 577.584 169.747 577.67 169.821C577.757 169.895 577.812 169.998 577.825 170.111C577.825 170.111 578.118 175.684 572.839 176.219L572.787 176.201Z" fill="#263238"/>
<path d="M595.217 133.259C595.217 133.259 594.544 125.133 580.724 122.442C566.905 119.75 555.467 130.309 545.909 127.359C536.351 124.409 541.958 145.836 559.987 143.456C572.121 141.593 583.963 138.165 595.217 133.259Z" fill="#263238"/>
<path opacity="0.2" d="M624.718 209.067C624.718 209.067 618.145 238.983 615.799 248.196C611.089 266.846 588.453 286.273 588.453 286.273C588.453 286.273 602.566 282.978 617.403 280.459C635.777 277.353 652.995 252.026 642.695 218.349L624.718 209.067Z" fill="black"/>
<path d="M624.166 237.724C624.166 237.724 624.166 254.252 618.99 260.67C613.815 267.088 586.59 280.459 586.59 280.459H569.009C567.526 280.459 563.402 287.826 563.402 287.826L570.303 295.969C570.303 295.969 590.334 292.087 588.505 286.273C588.505 286.273 615.126 275.921 622.631 270.659C630.136 265.397 635.829 242.089 635.829 242.089L624.166 237.724Z" fill="#E4897B"/>
<path d="M632.895 190.607C624.855 187.674 620.301 242.779 620.301 242.779L641.004 250.008C641.004 250.008 648.457 196.266 632.895 190.607Z" fill="#407BFF"/>
<path opacity="0.4" d="M632.895 190.607C624.855 187.674 620.301 242.779 620.301 242.779L641.004 250.008C641.004 250.008 648.457 196.266 632.895 190.607Z" fill="white"/>
<path d="M422.689 623.631C385.803 623.631 355.801 586.866 355.801 541.664C355.801 496.462 385.803 459.714 422.689 459.714C459.575 459.714 489.561 496.479 489.561 541.664C489.561 586.848 459.489 623.631 422.689 623.631ZM422.689 468.357C390.565 468.357 364.427 501.258 364.427 541.681C364.427 582.104 390.565 615.022 422.689 615.022C454.814 615.022 480.865 582.104 480.865 541.733C480.865 501.362 454.745 468.34 422.689 468.34V468.357Z" fill="#2E353A"/>
<path d="M422.689 467.546C390.082 467.546 363.564 500.827 363.564 541.733C363.564 582.639 390.082 615.919 422.689 615.919C455.297 615.919 481.797 582.639 481.797 541.733C481.797 500.827 455.211 467.546 422.689 467.546ZM434.766 528.88L458.523 498.601C462.356 504.109 465.351 510.156 467.408 516.544L436.595 532.537C436.101 531.263 435.489 530.039 434.766 528.88ZM424.415 521.495V477.898C430.029 478.176 435.515 479.671 440.494 482.28L427.278 522.272C426.358 521.9 425.397 521.64 424.415 521.495ZM420.964 521.495C420.055 521.621 419.163 521.853 418.307 522.186L405.437 481.901C410.275 479.494 415.565 478.13 420.964 477.898V521.495ZM408.801 532.192L378.177 515.629C380.237 509.554 383.141 503.799 386.804 498.532L410.526 528.88C409.838 529.933 409.238 531.041 408.732 532.192H408.801ZM407.714 535.539C407.362 536.982 407.142 538.455 407.058 539.938H373.882C374.002 532.842 375.063 525.793 377.039 518.977L407.714 535.539ZM406.989 543.458C407.076 544.851 407.272 546.236 407.576 547.599L376.78 563.592C374.971 557.029 373.997 550.265 373.882 543.458H406.989ZM408.628 550.946C409.093 552.192 409.67 553.393 410.354 554.534L386.7 584.864C382.874 579.352 379.88 573.306 377.815 566.922L408.628 550.946ZM420.895 561.918V605.533C415.275 605.257 409.783 603.761 404.798 601.151L418.014 561.159C418.966 561.507 419.957 561.738 420.964 561.849L420.895 561.918ZM424.346 561.918C425.247 561.782 426.132 561.551 426.985 561.228L439.752 601.496C434.95 603.89 429.705 605.264 424.346 605.533V561.918ZM436.422 551.204L467.063 567.784C465.002 573.859 462.099 579.615 458.437 584.882L434.766 554.465C435.434 553.406 436.011 552.292 436.491 551.135L436.422 551.204ZM437.509 547.875C437.872 546.426 438.109 544.948 438.217 543.458H471.342C471.223 550.56 470.161 557.615 468.184 564.437L437.509 547.875ZM438.217 540.007C438.115 538.62 437.913 537.242 437.613 535.884L468.409 519.891C470.229 526.446 471.214 533.205 471.342 540.007H438.217ZM456.349 495.737L432.592 526.119C431.882 525.346 431.096 524.647 430.246 524.032L443.461 484.057C448.397 487.166 452.767 491.092 456.384 495.668L456.349 495.737ZM402.348 483.66L415.098 523.876C414.177 524.534 413.327 525.285 412.562 526.119L388.84 495.668C392.601 490.87 397.187 486.781 402.383 483.591L402.348 483.66ZM388.805 587.746L412.596 557.26C413.307 558.033 414.093 558.732 414.943 559.348L401.727 599.322C396.801 596.2 392.443 592.262 388.84 587.677L388.805 587.746ZM442.806 599.822L430.056 559.624C430.977 558.966 431.827 558.215 432.592 557.381L456.349 587.763C452.595 592.526 448.02 596.581 442.84 599.736L442.806 599.822Z" fill="#407BFF"/>
<g opacity="0.2">
<path opacity="0.2" d="M422.689 467.546C390.082 467.546 363.564 500.827 363.564 541.733C363.564 582.639 390.082 615.919 422.689 615.919C455.297 615.919 481.797 582.639 481.797 541.733C481.797 500.827 455.211 467.546 422.689 467.546ZM434.766 528.88L458.523 498.601C462.356 504.109 465.351 510.156 467.408 516.544L436.595 532.537C436.101 531.263 435.489 530.039 434.766 528.88ZM424.415 521.495V477.898C430.029 478.176 435.515 479.671 440.494 482.28L427.278 522.272C426.358 521.9 425.397 521.64 424.415 521.495ZM420.964 521.495C420.055 521.621 419.163 521.853 418.307 522.186L405.437 481.901C410.275 479.494 415.565 478.13 420.964 477.898V521.495ZM408.801 532.192L378.177 515.629C380.237 509.554 383.141 503.799 386.804 498.532L410.526 528.88C409.838 529.933 409.238 531.041 408.732 532.192H408.801ZM407.714 535.539C407.362 536.982 407.142 538.455 407.058 539.938H373.882C374.002 532.842 375.063 525.793 377.039 518.977L407.714 535.539ZM406.989 543.458C407.076 544.851 407.272 546.236 407.576 547.599L376.78 563.592C374.971 557.029 373.997 550.265 373.882 543.458H406.989ZM408.628 550.946C409.093 552.192 409.67 553.393 410.354 554.534L386.7 584.864C382.874 579.352 379.88 573.306 377.815 566.922L408.628 550.946ZM420.895 561.918V605.533C415.275 605.257 409.783 603.761 404.798 601.151L418.014 561.159C418.966 561.507 419.957 561.738 420.964 561.849L420.895 561.918ZM424.346 561.918C425.247 561.782 426.132 561.551 426.985 561.228L439.752 601.496C434.95 603.89 429.705 605.264 424.346 605.533V561.918ZM436.422 551.204L467.063 567.784C465.002 573.859 462.099 579.615 458.437 584.882L434.766 554.465C435.434 553.406 436.011 552.292 436.491 551.135L436.422 551.204ZM437.509 547.875C437.872 546.426 438.109 544.948 438.217 543.458H471.342C471.223 550.56 470.161 557.615 468.184 564.437L437.509 547.875ZM438.217 540.007C438.115 538.62 437.913 537.242 437.613 535.884L468.409 519.891C470.229 526.446 471.214 533.205 471.342 540.007H438.217ZM456.349 495.737L432.592 526.119C431.882 525.346 431.096 524.647 430.246 524.032L443.461 484.057C448.397 487.166 452.767 491.092 456.384 495.668L456.349 495.737ZM402.348 483.66L415.098 523.876C414.177 524.534 413.327 525.285 412.562 526.119L388.84 495.668C392.601 490.87 397.187 486.781 402.383 483.591L402.348 483.66ZM388.805 587.746L412.596 557.26C413.307 558.033 414.093 558.732 414.943 559.348L401.727 599.322C396.801 596.2 392.443 592.262 388.84 587.677L388.805 587.746ZM442.806 599.822L430.056 559.624C430.977 558.966 431.827 558.215 432.592 557.381L456.349 587.763C452.595 592.526 448.02 596.581 442.84 599.736L442.806 599.822Z" fill="black"/>
</g>
<path d="M467.546 460.783H400.485C396.707 460.788 393.085 462.291 390.414 464.962C387.742 467.634 386.239 471.256 386.235 475.034V586.452C386.235 588.145 385.562 589.768 384.365 590.965C383.168 592.163 381.544 592.835 379.851 592.835H358.855C357.94 592.835 357.062 593.199 356.415 593.846C355.768 594.493 355.404 595.371 355.404 596.286C355.404 597.201 355.768 598.079 356.415 598.726C357.062 599.373 357.94 599.736 358.855 599.736H379.782C383.303 599.727 386.676 598.325 389.166 595.835C391.655 593.346 393.058 589.972 393.067 586.452V545.183H467.546C468.462 545.183 469.339 544.82 469.986 544.173C470.633 543.526 470.997 542.648 470.997 541.733V464.234C470.997 463.319 470.633 462.441 469.986 461.794C469.339 461.147 468.462 460.783 467.546 460.783ZM464.096 538.282H393.136V475.034C393.136 473.085 393.91 471.216 395.288 469.837C396.667 468.459 398.536 467.685 400.485 467.685H464.096V538.282Z" fill="#2E353A"/>
<path opacity="0.3" d="M467.546 460.783H400.485C396.707 460.788 393.085 462.291 390.414 464.962C387.742 467.634 386.239 471.256 386.235 475.034V586.452C386.235 588.145 385.562 589.768 384.365 590.965C383.168 592.163 381.544 592.835 379.851 592.835H358.855C357.94 592.835 357.062 593.199 356.415 593.846C355.768 594.493 355.404 595.371 355.404 596.286C355.404 597.201 355.768 598.079 356.415 598.726C357.062 599.373 357.94 599.736 358.855 599.736H379.782C383.303 599.727 386.676 598.325 389.166 595.835C391.655 593.346 393.058 589.972 393.067 586.452V545.183H467.546C468.462 545.183 469.339 544.82 469.986 544.173C470.633 543.526 470.997 542.648 470.997 541.733V464.234C470.997 463.319 470.633 462.441 469.986 461.794C469.339 461.147 468.462 460.783 467.546 460.783ZM464.096 538.282H393.136V475.034C393.136 473.085 393.91 471.216 395.288 469.837C396.667 468.459 398.536 467.685 400.485 467.685H464.096V538.282Z" fill="white"/>
<path d="M475.534 311.099V422.241H394.551C391.114 422.241 387.819 423.606 385.389 426.036C382.959 428.466 381.594 431.761 381.594 435.198V492.873H468.616C472.777 492.869 476.766 491.213 479.706 488.269C482.647 485.325 484.299 481.334 484.299 477.173V311.099H475.534Z" fill="#2E353A"/>
<path opacity="0.3" d="M475.534 311.099V422.241H394.551C391.114 422.241 387.819 423.606 385.389 426.036C382.959 428.466 381.594 431.761 381.594 435.198V492.873H468.616C472.777 492.869 476.766 491.213 479.706 488.269C482.647 485.325 484.299 481.334 484.299 477.173V311.099H475.534Z" fill="white"/>
<path d="M393.015 464.096H524.687V489.354H379.92V477.277C379.909 475.55 380.239 473.838 380.892 472.239C381.545 470.641 382.508 469.187 383.725 467.962C384.942 466.737 386.389 465.764 387.984 465.101C389.578 464.437 391.288 464.096 393.015 464.096Z" fill="#2E353A"/>
<path d="M537.678 485.679H379.696C379.225 485.679 378.758 485.772 378.323 485.952C377.887 486.132 377.492 486.397 377.158 486.73C376.825 487.063 376.561 487.459 376.381 487.894C376.2 488.33 376.107 488.796 376.107 489.267C376.107 490.221 376.485 491.135 377.157 491.811C377.83 492.487 378.743 492.869 379.696 492.873H537.678C538.607 492.874 539.499 492.515 540.168 491.871C540.838 491.228 541.231 490.35 541.267 489.423C541.288 488.939 541.211 488.455 541.04 488.002C540.869 487.548 540.608 487.134 540.272 486.784C539.937 486.434 539.534 486.156 539.089 485.966C538.643 485.776 538.163 485.679 537.678 485.679Z" fill="#2E353A"/>
<path opacity="0.3" d="M537.678 485.679H379.696C379.225 485.679 378.758 485.772 378.323 485.952C377.887 486.132 377.492 486.397 377.158 486.73C376.825 487.063 376.561 487.459 376.381 487.894C376.2 488.33 376.107 488.796 376.107 489.267C376.107 490.221 376.485 491.135 377.157 491.811C377.83 492.487 378.743 492.869 379.696 492.873H537.678C538.607 492.874 539.499 492.515 540.168 491.871C540.838 491.228 541.231 490.35 541.267 489.423C541.288 488.939 541.211 488.455 541.04 488.002C540.869 487.548 540.608 487.134 540.272 486.784C539.937 486.434 539.534 486.156 539.089 485.966C538.643 485.776 538.163 485.679 537.678 485.679Z" fill="white"/>
<path d="M478.623 314.394H552.188V462.922C552.188 468.962 549.789 474.755 545.518 479.026C541.247 483.296 535.455 485.696 529.415 485.696H478.623V314.394Z" fill="#2E353A"/>
<path d="M397.777 587.003H355.232C352.869 587.003 350.953 588.919 350.953 591.282V593.697C350.953 596.06 352.869 597.976 355.232 597.976H397.777C400.14 597.976 402.055 596.06 402.055 593.697V591.282C402.055 588.919 400.14 587.003 397.777 587.003Z" fill="#2E353A"/>
<path opacity="0.2" d="M397.777 587.003H355.232C352.869 587.003 350.953 588.919 350.953 591.282V593.697C350.953 596.06 352.869 597.976 355.232 597.976H397.777C400.14 597.976 402.055 596.06 402.055 593.697V591.282C402.055 588.919 400.14 587.003 397.777 587.003Z" fill="white"/>
<path d="M537.351 539.231L470.566 515.474L537.351 491.7C537.671 491.587 537.966 491.411 538.219 491.184C538.472 490.957 538.678 490.682 538.824 490.375C538.971 490.068 539.055 489.735 539.073 489.396C539.091 489.056 539.042 488.717 538.929 488.396C538.816 488.075 538.641 487.78 538.413 487.527C538.186 487.275 537.911 487.069 537.604 486.922C537.297 486.776 536.965 486.691 536.625 486.673C536.286 486.655 535.946 486.704 535.625 486.817L462.871 512.696L390.099 486.817C389.779 486.704 389.439 486.655 389.099 486.673C388.76 486.691 388.427 486.776 388.12 486.922C387.814 487.069 387.539 487.275 387.311 487.527C387.084 487.78 386.909 488.075 386.795 488.396C386.682 488.717 386.633 489.056 386.651 489.396C386.669 489.735 386.754 490.068 386.9 490.375C387.047 490.682 387.253 490.957 387.505 491.184C387.758 491.411 388.053 491.587 388.374 491.7L455.142 515.457L388.374 539.214C388.053 539.328 387.758 539.504 387.505 539.732C387.252 539.96 387.047 540.236 386.901 540.544C386.756 540.852 386.672 541.185 386.655 541.525C386.638 541.865 386.689 542.206 386.804 542.526C386.978 543.032 387.306 543.471 387.742 543.781C388.179 544.09 388.702 544.255 389.237 544.251C389.53 544.257 389.822 544.211 390.099 544.113L462.871 518.234L535.625 544.113C535.946 544.227 536.286 544.276 536.625 544.258C536.965 544.24 537.297 544.155 537.604 544.008C537.911 543.862 538.186 543.656 538.413 543.403C538.641 543.151 538.816 542.855 538.929 542.535C539.042 542.214 539.091 541.874 539.073 541.535C539.055 541.195 538.971 540.863 538.824 540.556C538.678 540.249 538.472 539.974 538.219 539.747C537.966 539.52 537.671 539.344 537.351 539.231Z" fill="#2E353A"/>
<path opacity="0.3" d="M537.351 539.231L470.566 515.474L537.351 491.7C537.671 491.587 537.966 491.411 538.219 491.184C538.472 490.957 538.678 490.682 538.824 490.375C538.971 490.068 539.055 489.735 539.073 489.396C539.091 489.056 539.042 488.717 538.929 488.396C538.816 488.075 538.641 487.78 538.413 487.527C538.186 487.275 537.911 487.069 537.604 486.922C537.297 486.776 536.965 486.691 536.625 486.673C536.286 486.655 535.946 486.704 535.625 486.817L462.871 512.696L390.099 486.817C389.779 486.704 389.439 486.655 389.099 486.673C388.76 486.691 388.427 486.776 388.12 486.922C387.814 487.069 387.539 487.275 387.311 487.527C387.084 487.78 386.909 488.075 386.795 488.396C386.682 488.717 386.633 489.056 386.651 489.396C386.669 489.735 386.754 490.068 386.9 490.375C387.047 490.682 387.253 490.957 387.505 491.184C387.758 491.411 388.053 491.587 388.374 491.7L455.142 515.457L388.374 539.214C388.053 539.328 387.758 539.504 387.505 539.732C387.252 539.96 387.047 540.236 386.901 540.544C386.756 540.852 386.672 541.185 386.655 541.525C386.638 541.865 386.689 542.206 386.804 542.526C386.978 543.032 387.306 543.471 387.742 543.781C388.179 544.09 388.702 544.255 389.237 544.251C389.53 544.257 389.822 544.211 390.099 544.113L462.871 518.234L535.625 544.113C535.946 544.227 536.286 544.276 536.625 544.258C536.965 544.24 537.297 544.155 537.604 544.008C537.911 543.862 538.186 543.656 538.413 543.403C538.641 543.151 538.816 542.855 538.929 542.535C539.042 542.214 539.091 541.874 539.073 541.535C539.055 541.195 538.971 540.863 538.824 540.556C538.678 540.249 538.472 539.974 538.219 539.747C537.966 539.52 537.671 539.344 537.351 539.231Z" fill="white"/>
<path d="M479.709 327.507C479.023 327.507 478.364 327.234 477.879 326.749C477.394 326.263 477.121 325.605 477.121 324.919V305.095C477.121 301.298 478.584 297.647 481.206 294.9C483.827 292.153 487.406 290.522 491.199 290.344L507.9 289.534C508.586 289.502 509.257 289.743 509.765 290.206C510.273 290.669 510.576 291.314 510.608 292.001C510.641 292.687 510.399 293.358 509.936 293.866C509.473 294.374 508.828 294.677 508.141 294.709L491.441 295.52C488.975 295.636 486.649 296.697 484.946 298.484C483.243 300.27 482.294 302.644 482.297 305.113V324.936C482.292 325.619 482.018 326.273 481.533 326.755C481.048 327.236 480.392 327.507 479.709 327.507Z" fill="#263238"/>
<path d="M395.067 580.172L411.647 574.979L409.508 558.623L407.524 543.613L387.148 547.633L391.324 564.869L395.067 580.172Z" fill="#EBB376"/>
<path opacity="0.2" d="M391.445 565.213L409.595 558.916L407.559 543.768L387.184 547.702L391.445 565.213Z" fill="black"/>
<path d="M413.063 571.183C413.063 569.889 392.808 571.614 392.808 571.614C392.808 571.614 380.732 581.966 368.655 584.605C356.578 587.245 363.617 592.68 377.109 592.197L410.492 591.006C420.154 590.661 413.943 584.485 413.063 571.183Z" fill="#2E353A"/>
<path d="M363.565 434.594C375.642 413.891 439.77 409.992 482.246 407.076L496.738 444.497C496.738 444.497 433.334 441.046 415.029 461.646C400.485 478.071 410.388 551.843 410.388 551.843L383.112 553.81C383.112 553.81 342.223 471.307 363.565 434.594Z" fill="#2E353A"/>
<path opacity="0.2" d="M363.565 434.594C375.642 413.891 439.77 409.992 482.246 407.076L496.738 444.497C496.738 444.497 433.334 441.046 415.029 461.646C400.485 478.071 410.388 551.843 410.388 551.843L383.112 553.81C383.112 553.81 342.223 471.307 363.565 434.594Z" fill="black"/>
<path d="M429.573 580.172L446.153 574.979L444.014 558.623L442.012 543.613L421.654 547.633L425.829 564.869L429.573 580.172Z" fill="#EBB376"/>
<path opacity="0.2" d="M425.95 565.213L444.117 558.916L442.064 543.768L421.688 547.702L425.95 565.213Z" fill="black"/>
<path d="M485.006 300.575C493.632 296.435 516.578 300.023 522.116 305.285C527.654 310.547 505.054 325.988 492.925 323.78C480.796 321.572 478.26 303.801 485.006 300.575Z" fill="#407BFF"/>
<path opacity="0.2" d="M485.006 300.575C493.632 296.435 516.578 300.023 522.116 305.285C527.654 310.547 505.054 325.988 492.925 323.78C480.796 321.572 478.26 303.801 485.006 300.575Z" fill="black"/>
<path d="M441.408 406.714C441.408 406.714 456.435 377.66 457.212 375.4C461.214 363.703 533.882 374.244 533.882 374.244C533.882 374.244 553.913 435.129 528.965 452.606C507.279 467.805 454.779 460.956 445.859 463.699C437.613 466.235 433.576 475.086 446.118 557.571L419.083 558.589C419.083 558.589 379.506 460.249 379.937 442.513C380.368 424.777 377.263 416.703 441.408 406.714Z" fill="#2E353A"/>
<path d="M442.306 402.435C442.306 402.435 463.475 327.8 470.997 308.512C473.774 301.369 540.387 308.287 540.387 308.287V398.622C540.387 398.622 490.561 416.254 476 408.974C471.376 406.645 466.442 390.651 466.442 390.651C466.442 390.651 457.126 408.008 451.363 408.146C448.068 408.197 442.306 402.435 442.306 402.435Z" fill="#407BFF"/>
<path opacity="0.6" d="M540.37 308.287V398.622C540.37 398.622 490.544 416.254 475.983 408.973C471.359 406.644 466.425 390.651 466.425 390.651C466.425 390.651 457.126 408.007 451.346 408.145C448.068 408.231 442.306 402.469 442.306 402.469C442.306 402.469 442.582 401.468 443.117 399.657C445.98 389.599 456.039 354.541 463.82 329.818C466.666 320.778 469.203 313.118 470.98 308.546C473.757 301.369 540.37 308.287 540.37 308.287Z" fill="white"/>
<path opacity="0.2" d="M483.176 344.449C484.186 344.449 485.005 343.63 485.005 342.62C485.005 341.61 484.186 340.791 483.176 340.791C482.166 340.791 481.348 341.61 481.348 342.62C481.348 343.63 482.166 344.449 483.176 344.449Z" fill="black"/>
<path opacity="0.2" d="M476.897 362.633C477.907 362.633 478.726 361.814 478.726 360.804C478.726 359.794 477.907 358.975 476.897 358.975C475.887 358.975 475.068 359.794 475.068 360.804C475.068 361.814 475.887 362.633 476.897 362.633Z" fill="black"/>
<path opacity="0.2" d="M469.84 382.888C470.851 382.888 471.669 382.069 471.669 381.059C471.669 380.049 470.851 379.23 469.84 379.23C468.83 379.23 468.012 380.049 468.012 381.059C468.012 382.069 468.83 382.888 469.84 382.888Z" fill="black"/>
<path opacity="0.2" d="M540.37 346.864V397.414C487.352 415.357 472.636 399.83 472.636 399.83C472.636 399.83 501.689 383.336 513.749 377.194C525.808 371.052 528.137 338.962 528.137 338.962C532.35 341.381 536.433 344.019 540.37 346.864Z" fill="black"/>
<path opacity="0.2" d="M456.643 374.693C456.833 385.234 458.507 388.667 458.99 393.343C459.404 397.587 458.161 407.283 443.117 399.623C445.981 389.564 456.039 354.507 463.82 329.784C464.466 330.059 465.053 330.457 465.546 330.957C465.546 330.957 456.419 361.667 456.643 374.693Z" fill="black"/>
<path d="M520.563 308.598C520.563 308.598 512.368 315.412 504.691 315.758C497.013 316.103 489.716 327.369 489.716 327.369C489.716 327.369 487.818 316.103 488.318 315.085C488.158 313.709 487.774 312.368 487.179 311.117C486.282 308.391 485.592 305.32 488.318 305.32C492.925 305.32 489.716 295.986 489.716 295.986L515.75 288.826C515.016 291.262 514.525 293.764 514.283 296.297C513.817 301.472 514.594 307.632 520.563 308.598Z" fill="#EBB376"/>
<path opacity="0.2" d="M515.75 288.809C515.016 291.245 514.525 293.747 514.283 296.279C509.107 302.438 499.998 310.306 487.179 311.099C486.282 308.373 485.592 305.302 488.318 305.302C492.925 305.302 489.716 295.969 489.716 295.969L515.75 288.809Z" fill="black"/>
<path d="M517.579 310.133C517.579 310.133 504.035 334.011 501.154 353.817C505.818 353.348 510.517 353.348 515.181 353.817C520.477 354.662 516.664 327.524 529.173 308.097L517.579 310.133Z" fill="#407BFF"/>
<path opacity="0.2" d="M517.579 310.133C517.579 310.133 504.035 334.011 501.154 353.817C505.818 353.348 510.517 353.348 515.181 353.817C520.477 354.662 516.664 327.524 529.173 308.097L517.579 310.133Z" fill="black"/>
<path d="M485.005 311.168C485.005 318.949 494.322 325.316 508.296 313.722C522.271 302.128 525.998 299.437 529.448 303.508C529.448 303.508 534.123 303.853 534.865 307.752C530.733 309.379 526.932 311.747 523.651 314.74C519.303 319.174 500.429 335.546 488.249 334.183C476.068 332.82 473.101 315.205 480.036 308.097C480.036 308.097 480.295 297.038 490.837 301.421C490.906 301.421 485.005 302.283 485.005 311.168Z" fill="#407BFF"/>
<path d="M501.085 353.817C501.085 353.817 499.36 361.27 499.757 361.598C500.153 361.925 500.809 354.214 502.155 354.783C503.5 355.352 501.033 361.856 502.155 361.684C503.276 361.511 502.068 355.076 503.466 354.955C504.863 354.835 503.276 361.598 504.311 361.684C505.346 361.77 504.311 354.955 505.657 354.955C507.003 354.955 505.226 361.856 506.347 361.684C507.468 361.511 506.589 354.628 507.831 354.628C509.073 354.628 507.158 361.373 508.4 361.701C509.642 362.029 508.297 354.955 509.884 354.955C511.471 354.955 509.539 361.856 510.332 361.701C511.126 361.546 509.884 354.628 511.471 354.955C513.058 355.283 511.368 361.96 512.265 361.701C513.162 361.442 511.471 354.955 513.058 355.3C514.646 355.646 514.093 362.202 514.542 361.718C514.991 361.235 514.801 355.87 515.75 355.749C516.699 355.628 515.75 360.528 517.164 360.925C518.579 361.322 515.75 353.886 515.75 353.886C515.75 353.886 506.761 351.953 501.085 353.817Z" fill="#407BFF"/>
<path d="M505.243 252.647C490.716 250.353 484.816 257.392 481.4 272.194C481.296 272.574 481.141 273.333 481.141 273.333C472.101 281.338 477.397 303.508 497.963 303.508C523.531 303.508 529.38 256.443 505.243 252.647Z" fill="#EBB376"/>
<path d="M490.906 272.867C489.403 274.852 487.665 276.648 485.73 278.216C486.061 278.882 486.57 279.445 487.2 279.841C487.83 280.236 488.558 280.45 489.302 280.459L490.906 272.867Z" fill="#D58745"/>
<path d="M499.999 273.074C499.774 274.265 500.24 275.352 501.034 275.49C501.828 275.628 502.638 274.782 502.863 273.592C503.087 272.401 502.604 271.332 501.81 271.177C501.017 271.021 500.206 271.884 499.999 273.074Z" fill="#263238"/>
<path d="M502.137 271.297L499.739 269.813C499.739 269.813 500.636 272.229 502.137 271.297Z" fill="#263238"/>
<path d="M485.265 270.142C485.041 271.332 485.507 272.419 486.3 272.557C487.094 272.695 487.905 271.85 488.129 270.659C488.354 269.469 487.87 268.399 487.077 268.244C486.283 268.089 485.472 268.951 485.265 270.142Z" fill="#263238"/>
<path d="M487.404 268.365L485.006 266.881C485.006 266.881 485.886 269.296 487.404 268.365Z" fill="#263238"/>
<path d="M507.676 266.881C507.567 266.886 507.458 266.859 507.363 266.804C507.268 266.749 507.191 266.668 507.142 266.57C506.511 265.712 505.695 265.007 504.754 264.508C503.813 264.009 502.771 263.729 501.707 263.689C501.542 263.689 501.384 263.624 501.268 263.507C501.151 263.391 501.086 263.233 501.086 263.068C501.086 262.903 501.151 262.745 501.268 262.629C501.384 262.512 501.542 262.447 501.707 262.447C502.98 262.479 504.227 262.807 505.35 263.406C506.473 264.005 507.441 264.858 508.177 265.897C508.258 266.039 508.281 266.208 508.239 266.366C508.197 266.525 508.094 266.66 507.953 266.743C507.872 266.808 507.778 266.856 507.676 266.881Z" fill="#263238"/>
<path d="M485.282 261.688C485.161 261.691 485.043 261.658 484.942 261.594C484.84 261.529 484.76 261.436 484.712 261.325C484.647 261.174 484.643 261.003 484.701 260.849C484.759 260.694 484.874 260.569 485.023 260.497C486.022 259.963 487.13 259.663 488.262 259.618C489.395 259.573 490.523 259.785 491.562 260.238C491.708 260.319 491.817 260.454 491.863 260.614C491.91 260.774 491.892 260.946 491.812 261.093C491.732 261.239 491.597 261.348 491.436 261.394C491.276 261.441 491.104 261.423 490.958 261.343C490.092 260.976 489.154 260.812 488.215 260.863C487.276 260.913 486.361 261.178 485.54 261.636L485.282 261.688Z" fill="#263238"/>
<path d="M543.25 268.227C540.611 265.915 535.59 267.226 531.967 268.675C531.967 268.52 531.967 268.382 531.967 268.227C532.06 265.564 531.507 262.918 530.357 260.515C529.206 258.111 527.492 256.022 525.359 254.424C525.359 248.628 520.873 246.074 515.939 244.539C511.005 243.003 506.709 245.902 500.912 243.176C499.968 242.63 498.924 242.281 497.841 242.149C496.759 242.017 495.661 242.105 494.614 242.408C493.566 242.711 492.591 243.222 491.746 243.911C490.902 244.601 490.205 245.454 489.698 246.419C488.197 249.145 488.853 253.096 484.022 253.234C479.191 253.372 480.364 257.892 481.296 260.308C482.228 262.723 481.969 262.033 480.433 264.707C479.381 266.536 480.951 267.692 482.072 268.158C481.883 269.434 481.848 270.228 481.848 270.228C481.986 269.538 482.141 268.882 482.314 268.261C489.215 241.985 514.818 257.53 514.818 257.53C512.333 266.588 517.233 279.596 517.233 279.596C519.39 285.376 516.215 291.207 514.214 294.088C513.776 294.733 513.298 295.35 512.782 295.934C513.672 295.398 514.509 294.78 515.284 294.088C525.635 293.726 525.152 288.102 525.135 286.238C525.349 285.367 525.743 284.55 526.291 283.84C528.016 287.187 531.656 291.604 538.126 290.172C548.202 287.998 547.684 272.126 543.25 268.227Z" fill="#263238"/>
<path d="M493.045 288.447C491.803 288.435 490.578 288.153 489.456 287.619C489.308 287.547 489.192 287.421 489.134 287.267C489.077 287.113 489.081 286.942 489.146 286.79C489.177 286.714 489.224 286.644 489.284 286.586C489.344 286.529 489.415 286.484 489.492 286.455C489.57 286.426 489.653 286.413 489.736 286.417C489.819 286.421 489.9 286.443 489.974 286.48C491.381 287.202 493.004 287.387 494.538 287C496.071 286.612 497.412 285.679 498.307 284.375C498.352 284.307 498.41 284.248 498.478 284.203C498.546 284.157 498.622 284.126 498.702 284.11C498.783 284.094 498.865 284.094 498.945 284.11C499.025 284.125 499.102 284.157 499.17 284.202C499.238 284.248 499.296 284.306 499.342 284.374C499.387 284.442 499.419 284.518 499.435 284.598C499.451 284.678 499.451 284.761 499.435 284.841C499.419 284.921 499.388 284.997 499.342 285.065C498.622 286.074 497.68 286.904 496.588 287.491C495.496 288.077 494.284 288.404 493.045 288.447Z" fill="#263238"/>
<path d="M502.448 279.148C502.017 279.167 501.586 279.101 501.18 278.953C500.774 278.805 500.402 278.578 500.085 278.285C499.66 277.771 499.348 277.174 499.17 276.532C498.992 275.89 498.951 275.217 499.05 274.558C499.067 274.445 499.126 274.343 499.216 274.273C499.306 274.202 499.419 274.169 499.533 274.179C499.649 274.196 499.754 274.258 499.825 274.351C499.896 274.445 499.927 274.563 499.912 274.679C499.763 275.743 500.042 276.823 500.689 277.681C501.055 277.973 501.486 278.172 501.945 278.262C502.405 278.353 502.879 278.331 503.328 278.199C503.385 278.189 503.443 278.19 503.499 278.203C503.555 278.216 503.608 278.241 503.655 278.274C503.701 278.308 503.741 278.351 503.771 278.4C503.8 278.449 503.82 278.504 503.829 278.561C503.849 278.673 503.824 278.788 503.759 278.882C503.694 278.976 503.595 279.04 503.483 279.061C503.141 279.114 502.795 279.143 502.448 279.148Z" fill="#D58745"/>
<path d="M485.109 275.593C484.317 275.564 483.54 275.364 482.832 275.007C482.731 274.952 482.656 274.86 482.62 274.751C482.585 274.642 482.593 274.524 482.642 274.42C482.694 274.321 482.782 274.245 482.889 274.21C482.995 274.175 483.111 274.182 483.212 274.23C483.603 274.513 484.058 274.695 484.537 274.759C485.015 274.822 485.502 274.766 485.954 274.595C486.405 274.424 486.807 274.143 487.124 273.779C487.44 273.414 487.661 272.976 487.766 272.505C487.805 272.406 487.879 272.324 487.974 272.276C488.069 272.228 488.178 272.216 488.281 272.244C488.384 272.272 488.473 272.337 488.531 272.427C488.589 272.516 488.611 272.624 488.594 272.729C488.439 273.284 488.174 273.801 487.816 274.252C487.457 274.702 487.012 275.076 486.507 275.352C486.063 275.528 485.587 275.611 485.109 275.593Z" fill="#D58745"/>
<path d="M502.138 288.257C502.042 288.256 501.95 288.223 501.875 288.164C501.8 288.104 501.747 288.022 501.724 287.929C500.585 282.926 495.047 280.89 494.995 280.873C494.888 280.834 494.8 280.754 494.752 280.65C494.703 280.547 494.698 280.428 494.737 280.321C494.754 280.266 494.782 280.215 494.82 280.172C494.858 280.129 494.904 280.094 494.956 280.07C495.008 280.046 495.064 280.032 495.121 280.031C495.179 280.029 495.236 280.04 495.289 280.062C495.53 280.062 501.327 282.287 502.552 287.739C502.578 287.849 502.56 287.965 502.502 288.061C502.444 288.158 502.351 288.228 502.241 288.257H502.138Z" fill="#D58745"/>
<path opacity="0.4" d="M543.25 268.227C540.611 265.915 535.59 267.226 531.967 268.675C531.967 268.52 531.967 268.382 531.967 268.227C532.06 265.564 531.507 262.918 530.357 260.515C529.206 258.111 527.492 256.022 525.359 254.424C525.359 248.628 520.873 246.074 515.939 244.539C511.005 243.003 506.709 245.902 500.912 243.176C499.968 242.63 498.924 242.281 497.841 242.149C496.759 242.017 495.661 242.105 494.614 242.408C493.566 242.711 492.591 243.222 491.746 243.911C490.902 244.601 490.205 245.454 489.698 246.419C488.197 249.145 488.853 253.096 484.022 253.234C479.191 253.372 480.364 257.892 481.296 260.308C482.228 262.723 481.969 262.033 480.433 264.707C479.381 266.536 480.951 267.692 482.072 268.158C481.883 269.434 481.848 270.228 481.848 270.228C481.986 269.538 482.141 268.882 482.314 268.261C489.215 241.985 514.818 257.53 514.818 257.53C512.333 266.588 517.233 279.596 517.233 279.596C519.39 285.376 516.215 291.207 514.214 294.088C513.776 294.733 513.298 295.35 512.782 295.934C513.672 295.398 514.509 294.78 515.284 294.088C525.635 293.726 525.152 288.102 525.135 286.238C525.349 285.367 525.743 284.55 526.291 283.84C528.016 287.187 531.656 291.604 538.126 290.172C548.202 287.998 547.684 272.126 543.25 268.227Z" fill="white"/>
<path d="M514.404 282.322C514.808 280.662 515.855 279.231 517.313 278.341C518.772 277.452 520.524 277.177 522.185 277.577C526.601 278.785 527.36 288.36 515.749 288.809C514.128 288.878 513.437 287.17 514.404 282.322Z" fill="#EBB376"/>
<g opacity="0.2">
<path opacity="0.2" d="M507.676 266.881C507.567 266.886 507.458 266.859 507.363 266.804C507.268 266.749 507.191 266.668 507.142 266.57C506.511 265.712 505.695 265.007 504.754 264.508C503.813 264.009 502.771 263.729 501.707 263.689C501.542 263.689 501.384 263.624 501.268 263.507C501.151 263.391 501.086 263.233 501.086 263.068C501.086 262.903 501.151 262.745 501.268 262.629C501.384 262.512 501.542 262.447 501.707 262.447C502.98 262.479 504.227 262.807 505.35 263.406C506.473 264.005 507.441 264.858 508.177 265.897C508.258 266.039 508.281 266.208 508.239 266.366C508.197 266.525 508.094 266.66 507.953 266.743C507.872 266.808 507.778 266.856 507.676 266.881Z" fill="white"/>
</g>
<g opacity="0.2">
<path opacity="0.2" d="M485.282 261.688C485.161 261.691 485.043 261.658 484.942 261.594C484.84 261.529 484.76 261.436 484.712 261.326C484.647 261.174 484.643 261.003 484.701 260.849C484.759 260.695 484.874 260.569 485.023 260.498C486.022 259.963 487.13 259.663 488.262 259.618C489.395 259.573 490.523 259.785 491.562 260.239C491.708 260.319 491.817 260.454 491.863 260.614C491.91 260.774 491.892 260.946 491.812 261.093C491.732 261.239 491.597 261.348 491.436 261.395C491.276 261.442 491.104 261.423 490.958 261.343C490.092 260.976 489.154 260.812 488.215 260.863C487.276 260.914 486.361 261.178 485.54 261.636L485.282 261.688Z" fill="white"/>
</g>
<path d="M349.279 494.236C349.279 494.236 349.607 442.03 362.581 428.676C375.555 415.323 423.724 407.162 423.724 407.162C423.724 407.162 468.581 402.487 484.902 410.699C501.223 418.911 501.43 461.508 501.43 461.508C501.43 461.508 457.798 456.591 452.019 476.173C448.386 488.705 445.721 501.498 444.048 514.439L349.279 494.236Z" fill="#407BFF"/>
<path opacity="0.2" d="M413.063 571.183C413.063 569.889 392.808 571.614 392.808 571.614C392.808 571.614 380.732 581.966 368.655 584.605C356.578 587.245 363.617 592.68 377.109 592.197L410.492 591.006C420.154 590.661 413.943 584.485 413.063 571.183Z" fill="black"/>
<path d="M447.567 571.183C447.481 569.889 427.312 571.614 427.312 571.614C427.312 571.614 415.236 581.966 403.159 584.605C391.082 587.245 398.121 592.68 411.612 592.197L444.996 591.006C454.658 590.661 448.447 584.485 447.567 571.183Z" fill="#2E353A"/>
<path d="M497.531 389.91L483.177 397.363C480.494 396.806 477.717 396.883 475.068 397.587C471.187 398.778 463.751 405.385 464.13 408.301C464.51 411.217 475.776 409.233 477.777 409.75C479.778 410.268 483.902 407.68 485.006 407.162C486.11 406.645 486.386 403.211 486.386 403.211L497.531 399.381V389.91Z" fill="#EBB376"/>
<path d="M540.369 308.287C550.721 311.1 556.621 365.135 546.269 381.059C535.918 396.983 492.079 403.125 492.079 403.125L487.766 392.187C487.766 392.187 521.546 378.178 525.152 371.346C528.758 364.514 530.466 350.884 527.395 334.27C524.324 317.656 540.369 308.287 540.369 308.287Z" fill="#407BFF"/>
<path opacity="0.6" d="M540.369 308.287C550.721 311.1 556.621 365.135 546.269 381.059C535.918 396.983 492.079 403.125 492.079 403.125L487.766 392.187C487.766 392.187 521.546 378.178 525.152 371.346C528.758 364.514 530.466 350.884 527.395 334.27C524.324 317.656 540.369 308.287 540.369 308.287Z" fill="white"/>
<path d="M452.329 386.58L455.469 397.5C457.082 399.074 458.31 400.999 459.058 403.125C459.782 405.678 458.695 408.301 457.332 408.732C453.882 409.836 446.463 411.458 445.946 409.595C445.428 407.731 444.41 399.674 447.481 400.037L445.083 391.186L452.329 386.58Z" fill="#EBB376"/>
<path d="M470.996 308.511C459.161 311.669 434.99 350.573 438.716 372.07C442.443 393.567 446.204 397.501 446.204 397.501L455.917 392.325C455.917 392.325 450.621 370.379 453.881 362.581C469.84 324.349 470.996 308.511 470.996 308.511Z" fill="#407BFF"/>
<path opacity="0.6" d="M470.996 308.511C459.161 311.669 434.99 350.573 438.716 372.07C442.443 393.567 446.204 397.501 446.204 397.501L455.917 392.325C455.917 392.325 450.621 370.379 453.881 362.581C469.84 324.349 470.996 308.511 470.996 308.511Z" fill="white"/>
<path d="M552.17 327.507C551.484 327.507 550.825 327.234 550.34 326.749C549.855 326.263 549.582 325.605 549.582 324.919V305.095C549.582 301.298 551.045 297.647 553.667 294.9C556.288 292.153 559.867 290.522 563.66 290.344L580.361 289.534C581.047 289.502 581.718 289.743 582.226 290.206C582.734 290.669 583.037 291.314 583.069 292.001C583.101 292.687 582.86 293.358 582.397 293.866C581.934 294.374 581.289 294.677 580.602 294.709L563.902 295.52C561.436 295.636 559.11 296.697 557.407 298.484C555.704 300.27 554.755 302.644 554.758 305.113V324.936C554.753 325.619 554.479 326.273 553.994 326.755C553.509 327.236 552.853 327.507 552.17 327.507Z" fill="#263238"/>
<path d="M547.995 315.482V422.241H467.011C463.575 422.241 460.28 423.606 457.85 426.036C455.42 428.466 454.055 431.761 454.055 435.198V492.873H541.077C545.238 492.869 549.227 491.213 552.167 488.269C555.108 485.325 556.76 481.334 556.76 477.173V315.482C556.76 314.319 556.298 313.205 555.476 312.383C554.654 311.561 553.54 311.099 552.378 311.099C551.215 311.099 550.101 311.561 549.279 312.383C548.457 313.205 547.995 314.319 547.995 315.482Z" fill="#2E353A"/>
<path opacity="0.4" d="M547.995 315.482V422.241H467.011C463.575 422.241 460.28 423.606 457.85 426.036C455.42 428.466 454.055 431.761 454.055 435.198V492.873H541.077C545.238 492.869 549.227 491.213 552.167 488.269C555.108 485.325 556.76 481.334 556.76 477.173V315.482C556.76 314.319 556.298 313.205 555.476 312.383C554.654 311.561 553.54 311.099 552.378 311.099C551.215 311.099 550.101 311.561 549.279 312.383C548.457 313.205 547.995 314.319 547.995 315.482Z" fill="white"/>
<path d="M536.557 460.783H469.496C465.718 460.788 462.096 462.291 459.424 464.962C456.753 467.634 455.25 471.256 455.245 475.034V586.452C455.245 588.145 454.573 589.768 453.376 590.965C452.178 592.163 450.555 592.835 448.862 592.835H415.788C414.873 592.835 413.996 593.199 413.349 593.846C412.701 594.493 412.338 595.371 412.338 596.286C412.338 597.201 412.701 598.079 413.349 598.726C413.996 599.373 414.873 599.736 415.788 599.736H448.793C452.313 599.727 455.687 598.325 458.176 595.835C460.666 593.346 462.068 589.972 462.077 586.452V545.183H536.557C537.472 545.183 538.35 544.82 538.997 544.173C539.644 543.526 540.007 542.648 540.007 541.733V464.234C540.007 463.319 539.644 462.441 538.997 461.794C538.35 461.147 537.472 460.783 536.557 460.783ZM533.106 538.282H462.146V475.034C462.146 473.085 462.921 471.216 464.299 469.837C465.677 468.459 467.547 467.685 469.496 467.685H533.106V538.282Z" fill="#2E353A"/>
<path opacity="0.6" d="M536.557 460.783H469.496C465.718 460.788 462.096 462.291 459.424 464.962C456.753 467.634 455.25 471.256 455.245 475.034V586.452C455.245 588.145 454.573 589.768 453.376 590.965C452.178 592.163 450.555 592.835 448.862 592.835H415.788C414.873 592.835 413.996 593.199 413.349 593.846C412.701 594.493 412.338 595.371 412.338 596.286C412.338 597.201 412.701 598.079 413.349 598.726C413.996 599.373 414.873 599.736 415.788 599.736H448.793C452.313 599.727 455.687 598.325 458.176 595.835C460.666 593.346 462.068 589.972 462.077 586.452V545.183H536.557C537.472 545.183 538.35 544.82 538.997 544.173C539.644 543.526 540.007 542.648 540.007 541.733V464.234C540.007 463.319 539.644 462.441 538.997 461.794C538.35 461.147 537.472 460.783 536.557 460.783ZM533.106 538.282H462.146V475.034C462.146 473.085 462.921 471.216 464.299 469.837C465.677 468.459 467.547 467.685 469.496 467.685H533.106V538.282Z" fill="white"/>
<path d="M446.084 587.003H391.462C389.099 587.003 387.184 588.919 387.184 591.282V593.697C387.184 596.06 389.099 597.976 391.462 597.976H446.084C448.447 597.976 450.363 596.06 450.363 593.697V591.282C450.363 588.919 448.447 587.003 446.084 587.003Z" fill="#2E353A"/>
<path opacity="0.4" d="M446.084 587.003H391.462C389.099 587.003 387.184 588.919 387.184 591.282V593.697C387.184 596.06 389.099 597.976 391.462 597.976H446.084C448.447 597.976 450.363 596.06 450.363 593.697V591.282C450.363 588.919 448.447 587.003 446.084 587.003Z" fill="white"/>
<path d="M536.556 623.631C499.67 623.631 469.668 586.866 469.668 541.664C469.668 496.462 499.67 459.714 536.556 459.714C573.443 459.714 603.428 496.479 603.428 541.664C603.428 586.848 573.356 623.631 536.556 623.631ZM536.556 468.357C504.432 468.357 478.294 501.258 478.294 541.681C478.294 582.104 504.432 615.022 536.556 615.022C568.681 615.022 594.732 582.104 594.732 541.733C594.732 501.362 568.612 468.34 536.556 468.34V468.357Z" fill="#2E353A"/>
<path d="M536.556 615.919C503.949 615.919 477.432 582.639 477.432 541.733C477.432 500.827 503.949 467.546 536.556 467.546C569.164 467.546 595.664 500.827 595.664 541.733C595.664 582.639 569.078 615.919 536.556 615.919ZM536.556 477.898C509.66 477.898 487.783 506.537 487.783 541.733C487.783 576.928 509.66 605.568 536.556 605.568C563.453 605.568 585.312 576.928 585.312 541.733C585.312 506.537 563.367 477.898 536.556 477.898Z" fill="#407BFF"/>
<path d="M536.487 561.97C545.158 561.97 552.187 552.879 552.187 541.664C552.187 530.449 545.158 521.357 536.487 521.357C527.816 521.357 520.787 530.449 520.787 541.664C520.787 552.879 527.816 561.97 536.487 561.97Z" fill="#407BFF"/>
<path d="M538.212 472.653H534.762V610.691H538.212V472.653Z" fill="#407BFF"/>
<path d="M590.437 539.938H482.539V543.389H590.437V539.938Z" fill="#407BFF"/>
<path d="M499.692 491.811L496.974 493.936L573.266 591.55L575.984 589.426L499.692 491.811Z" fill="#407BFF"/>
<path d="M573.272 491.761L496.963 589.362L499.681 591.487L575.99 493.886L573.272 491.761Z" fill="#407BFF"/>
<path d="M555.832 477.562L513.851 604.727L517.127 605.809L559.109 478.644L555.832 477.562Z" fill="#407BFF"/>
<path d="M487.612 513.278L485.971 516.312L585.351 570.069L586.992 567.034L487.612 513.278Z" fill="#407BFF"/>
<path d="M517.824 477.228L514.535 478.271L555.088 606.188L558.377 605.145L517.824 477.228Z" fill="#407BFF"/>
<path d="M585.669 514.188L485.699 566.096L487.289 569.159L587.259 517.251L585.669 514.188Z" fill="#407BFF"/>
<path d="M318.726 287.101L334.253 279.354C334.253 279.354 337.945 274.351 338.946 274.179C339.946 274.006 358.596 276.456 358.596 276.456C358.596 276.456 356.561 282.374 354.732 284.185C352.903 285.997 340.93 283.737 340.93 283.737L325.678 291.241L318.726 287.101Z" fill="#B97964"/>
<path d="M305.475 217.728C301.317 221.748 297.418 224.836 303.457 230.409C309.495 235.981 308.357 245.177 300.645 249.283C292.933 253.389 254.287 267.416 239.984 251.25C225.682 235.084 236.327 224.025 243.435 221.006C250.543 217.987 243.694 210.051 243.038 204.288C242.382 198.526 268.779 174.959 281.097 173.458C293.416 171.957 301.801 182.567 301.576 193.333C301.352 204.098 312.273 211.172 305.475 217.728Z" fill="#263238"/>
<path d="M290.5 246.988C289.655 246.988 295.245 283.995 296.746 289.533C298.247 295.071 329.181 280.182 329.181 280.182L334.184 287.825C334.184 287.825 307.097 310.651 295.366 308.097C283.634 305.544 274.887 265.104 274.887 265.104L290.5 246.988Z" fill="#407BFF"/>
<path opacity="0.7" d="M334.184 287.825C334.184 287.825 307.097 310.651 295.366 308.08C290.673 307.045 286.446 299.902 283.064 291.707C279.756 283.292 277.08 274.642 275.059 265.828C274.956 265.293 274.887 265.017 274.887 265.017L276.612 263.051L282.909 255.735L290.5 246.954C289.914 248.386 295.314 284.03 296.78 289.447C298.247 294.864 329.215 280.096 329.215 280.096L334.184 287.825Z" fill="white"/>
<path opacity="0.2" d="M283.064 291.707C279.755 283.292 277.079 274.642 275.059 265.828C275.542 264.862 276.042 263.931 276.577 263.051C278.174 260.222 280.314 257.736 282.874 255.735L283.116 255.563C283.116 255.563 289.844 274.938 283.064 291.707Z" fill="black"/>
<path d="M211.793 372.519L259.255 379.23L267.726 256.788L220.195 262.447L211.793 372.519Z" fill="#407BFF"/>
<path opacity="0.4" d="M211.793 372.519L259.255 379.23L267.726 256.788L220.195 262.447L211.793 372.519Z" fill="white"/>
<path d="M235.24 604.843H223.836L227.338 589.074L230.564 574.599L244.85 572.408L239.777 589.574L235.24 604.843Z" fill="#B97964"/>
<path opacity="0.2" d="M239.656 589.919L227.234 589.385L230.512 574.754L244.832 572.477L239.656 589.919Z" fill="black"/>
<path d="M211.621 604.843H200.217L203.719 589.074L206.945 574.599L221.231 572.408L216.158 589.574L211.621 604.843Z" fill="#B97964"/>
<path opacity="0.2" d="M216.037 589.919L203.615 589.385L206.893 574.754L221.213 572.477L216.037 589.919Z" fill="black"/>
<path d="M190.987 303.405C190.987 303.405 190.4 304.63 189.486 306.855C185.19 317.466 173.424 350.988 177.823 389.841C180.428 412.821 205.824 454.176 209.603 476.708C214.002 502.949 202.477 549.169 205.445 583.105L223.577 584.692L229.046 581.241L244.574 578.912C244.574 578.912 285.048 486.852 284.255 455.021C283.685 430.022 244.574 340.412 244.574 340.412L248.3 307.269" fill="#263238"/>
<path opacity="0.2" d="M231.911 580.879L229.047 581.31L224.406 584.243C227.373 573.891 252.941 484.385 253.39 464.682C253.908 443.737 224.061 369.448 224.061 369.448L231.703 355.646L230.548 376.659C230.548 376.659 258.738 434.421 260.964 464.648C263.155 493.667 234.257 574.357 231.911 580.879Z" fill="black"/>
<path d="M220.626 604.342C220.626 603.083 236.154 604.066 236.154 604.066C236.154 604.066 245.677 613.745 254.907 615.919C264.138 618.093 258.979 623.631 248.662 623.631H223.076C215.744 623.631 220.316 617.385 220.626 604.342Z" fill="#263238"/>
<path d="M237.827 606.068C237.779 606.044 237.738 606.008 237.707 605.964V605.861C237.697 605.815 237.697 605.768 237.707 605.723C237.698 605.671 237.698 605.619 237.707 605.568C237.707 605.378 239.07 601.806 241.157 600.927C241.472 600.786 241.813 600.713 242.158 600.713C242.503 600.713 242.844 600.786 243.158 600.927C243.866 601.272 244.211 601.703 244.176 602.238C244.176 603.049 243.038 603.859 241.778 604.532C242.941 604.342 244.135 604.473 245.229 604.912C245.431 605.019 245.608 605.169 245.748 605.35C245.888 605.532 245.987 605.741 246.04 605.964C246.154 606.242 246.181 606.548 246.116 606.841C246.051 607.134 245.898 607.4 245.677 607.603C245.277 607.876 244.798 608.009 244.314 607.983C242.058 607.722 239.864 607.074 237.827 606.068ZM239.242 605.809C241.519 606.775 244.418 607.621 245.091 607.034C245.091 607.034 245.349 606.81 245.194 606.206C245.159 606.091 245.101 605.985 245.024 605.893C244.947 605.801 244.852 605.726 244.746 605.671C244.172 605.411 243.545 605.293 242.917 605.326C241.679 605.36 240.447 605.522 239.242 605.809ZM241.399 601.686C240.176 602.471 239.243 603.634 238.742 604.998C241.036 604.136 243.245 602.928 243.279 602.238C243.279 602.031 242.934 601.824 242.727 601.72C242.505 601.616 242.265 601.558 242.02 601.548C241.806 601.552 241.595 601.599 241.399 601.686Z" fill="#407BFF"/>
<path d="M223.577 578.705L249.197 575.203L247.058 584.743L225.906 587.4L223.577 578.705Z" fill="#407BFF"/>
<path d="M197.008 604.342C197.008 603.083 212.535 604.066 212.535 604.066C212.535 604.066 222.041 613.745 231.272 615.919C240.502 618.093 235.343 623.631 225.026 623.631H199.492C192.125 623.631 196.68 617.385 197.008 604.342Z" fill="#263238"/>
<path d="M214.226 606.068C214.17 606.049 214.122 606.013 214.088 605.964V605.861C214.078 605.815 214.078 605.768 214.088 605.723C214.072 605.672 214.072 605.618 214.088 605.568C214.088 605.378 215.451 601.806 217.539 600.927C217.853 600.786 218.194 600.713 218.539 600.713C218.884 600.713 219.225 600.786 219.54 600.927C220.247 601.272 220.592 601.703 220.558 602.238C220.558 603.049 219.419 603.859 218.16 604.532C219.323 604.341 220.516 604.473 221.61 604.912C221.811 605.023 221.988 605.174 222.131 605.354C222.273 605.535 222.377 605.743 222.438 605.964C222.548 606.244 222.571 606.55 222.503 606.843C222.436 607.135 222.281 607.401 222.059 607.603C221.66 607.878 221.18 608.012 220.696 607.983C218.444 607.725 216.255 607.077 214.226 606.068ZM215.641 605.809C217.918 606.775 220.817 607.621 221.472 607.034C221.472 607.034 221.731 606.81 221.576 606.206C221.54 606.091 221.483 605.985 221.406 605.893C221.329 605.801 221.234 605.726 221.127 605.671C220.586 605.424 219.996 605.306 219.402 605.326C218.14 605.354 216.885 605.516 215.658 605.809H215.641ZM217.78 601.686C216.558 602.471 215.625 603.634 215.123 604.998C217.418 604.136 219.626 602.928 219.661 602.238C219.661 602.031 219.316 601.824 219.109 601.72C218.888 601.613 218.647 601.554 218.401 601.548C218.187 601.552 217.976 601.599 217.78 601.686Z" fill="#407BFF"/>
<path d="M201.7 578.705L229.046 575.203L226.768 584.743L204.185 587.4L201.7 578.705Z" fill="#407BFF"/>
<path d="M194.299 295.952L191.625 303.664L245.591 317.932L248.766 308.822L194.299 295.952Z" fill="black"/>
<path d="M212.818 298.747L210.168 297.974L206.226 311.489L208.876 312.262L212.818 298.747Z" fill="#263238"/>
<path d="M235.668 306.343L223.819 303.374L221.567 312.36L233.415 315.33L235.668 306.343Z" fill="white"/>
<path d="M246.146 306.419L243.496 305.646L239.552 319.16L242.202 319.933L246.146 306.419Z" fill="#263238"/>
<path d="M289.655 246.988C287.355 250.048 285.175 252.923 283.116 255.615C275.249 266.139 269.659 273.609 265.363 279.63C260.551 286.115 256.374 293.048 252.89 300.334C251.492 303.301 250.112 306.527 248.577 310.323L194.3 295.848C204.513 257.892 213.278 238.017 217.643 228.097L217.781 227.786C219.128 224.816 221.484 222.418 224.43 221.019C227.377 219.62 230.724 219.31 233.877 220.143C237.776 221.196 242.331 222.524 246.558 223.956C254.434 226.864 262.096 230.323 269.487 234.308C276.505 238.045 283.245 242.283 289.655 246.988Z" fill="#407BFF"/>
<path d="M233.876 220.247C226.734 218.366 237.24 243.486 253.475 248.386C269.71 253.286 279.475 247.264 279.492 242.606C279.509 237.948 255.425 226.009 233.876 220.247Z" fill="#B97964"/>
<path d="M238.639 219.781C238.639 219.781 244.09 244.383 238.639 262.447C233.187 280.51 188.606 389.823 188.606 389.823H164.918C164.918 389.823 172.25 335.874 194.247 289.533C194.247 289.533 214.019 227.269 214.468 224.525C214.916 221.782 225.44 217.383 238.639 219.781Z" fill="#407BFF"/>
<path d="M269.711 232.91C269.711 232.91 270.418 258.117 261.084 280.459L259.238 375.693C259.238 375.693 266.898 326.765 270.28 289.534L290.483 246.989L269.711 232.91Z" fill="#407BFF"/>
<path opacity="0.8" d="M238.639 262.447C233.169 280.493 188.606 389.823 188.606 389.823H164.918C164.918 389.823 171.629 340.498 191.487 295.675C192.401 293.622 193.333 291.569 194.299 289.534C194.299 289.534 196.18 283.616 198.785 275.335C204.651 256.788 214.209 226.423 214.519 224.526C214.968 221.8 225.44 217.297 238.673 219.781C238.639 219.781 244.09 244.383 238.639 262.447Z" fill="white"/>
<path opacity="0.8" d="M269.711 232.91C269.711 232.91 270.418 258.117 261.084 280.459L259.238 375.693C259.238 375.693 266.898 326.765 270.28 289.534L290.483 246.989L269.711 232.91Z" fill="white"/>
<path d="M270.296 230.788C270.296 230.788 277.474 236.585 282.201 251.94L272.591 258.789L274.92 265.069L261.118 287.066C260.521 281.357 260.894 275.588 262.222 270.004C264.396 261.843 270.952 237.741 270.296 230.788Z" fill="#407BFF"/>
<path d="M241.071 219.781C246.126 240.288 242.962 261.959 232.255 280.165C232.255 280.165 231.72 257.219 228.615 248.852L236.016 245.902L221.403 236.361C221.403 236.361 233.256 216.952 241.071 219.781Z" fill="#407BFF"/>
<path opacity="0.7" d="M270.296 230.788C270.296 230.788 277.474 236.585 282.201 251.94L272.591 258.789L274.92 265.069L261.118 287.066C260.521 281.357 260.894 275.588 262.222 270.004C264.396 261.843 270.952 237.741 270.296 230.788Z" fill="white"/>
<path opacity="0.7" d="M241.071 219.781C246.126 240.288 242.962 261.959 232.255 280.165C232.255 280.165 231.72 257.219 228.615 248.852L236.016 245.902L221.403 236.361C221.403 236.361 233.256 216.952 241.071 219.781Z" fill="white"/>
<path opacity="0.2" d="M214.07 304.302C208.515 304.819 198.819 299.954 191.486 295.676C192.401 293.623 193.332 291.569 194.299 289.534C194.299 289.534 196.179 283.616 198.784 275.335C207.635 286.187 220.833 303.646 214.07 304.302Z" fill="black"/>
<path d="M217.987 338.996C217.987 338.996 223.353 339.738 233.687 329.853C244.022 319.967 257.841 308.373 261.188 309.96L291.794 324.729L250.509 354.058L217.987 338.996Z" fill="#407BFF"/>
<path opacity="0.7" d="M217.987 338.996C217.987 338.996 223.353 339.738 233.687 329.853C244.022 319.967 257.841 308.373 261.188 309.96L291.794 324.729L250.509 354.058L217.987 338.996Z" fill="white"/>
<path d="M218.764 345.052L261.05 311.945C261.326 311.73 261.654 311.595 262 311.552C262.347 311.51 262.698 311.562 263.017 311.703L294.866 325.798C295 325.859 295.116 325.954 295.202 326.073C295.288 326.192 295.342 326.332 295.358 326.479C295.373 326.625 295.351 326.773 295.292 326.908C295.232 327.043 295.139 327.16 295.021 327.248L253.252 358.337C252.993 358.529 252.69 358.654 252.371 358.699C252.051 358.744 251.726 358.709 251.423 358.596L218.988 346.433C218.863 346.374 218.755 346.286 218.671 346.177C218.588 346.067 218.533 345.938 218.511 345.802C218.489 345.666 218.5 345.526 218.544 345.396C218.589 345.265 218.664 345.147 218.764 345.052Z" fill="#407BFF"/>
<path d="M281.305 318.794C281.684 318.225 282.167 317.069 281.046 316.568C280.503 316.41 279.931 316.379 279.375 316.478C278.818 316.577 278.292 316.802 277.837 317.138C276.198 316.379 274.662 315.654 273.576 315.171C273.461 315.122 273.335 315.107 273.212 315.128C273.09 315.15 272.976 315.206 272.885 315.292L270.229 317.724C270.112 317.832 270.025 317.967 269.974 318.118C269.924 318.268 269.912 318.428 269.939 318.584C269.967 318.741 270.033 318.887 270.131 319.011C270.23 319.135 270.359 319.233 270.505 319.294L281.357 323.935C281.742 324.095 282.164 324.147 282.577 324.087C282.99 324.026 283.379 323.854 283.703 323.59L285.859 321.779C285.927 321.727 285.98 321.658 286.013 321.58C286.047 321.502 286.06 321.417 286.051 321.332C286.043 321.247 286.013 321.166 285.964 321.097C285.915 321.027 285.85 320.971 285.773 320.933L281.305 318.794ZM280.58 317.483C280.925 317.707 280.666 318.087 280.408 318.363L279.131 317.759C279.614 317.448 280.252 317.259 280.58 317.448V317.483Z" fill="#263238"/>
<path d="M227.734 310.426L234.791 319.863C234.791 319.863 241.692 321.226 243.417 323.038C246.606 326.647 249.442 330.552 251.888 334.701C252.561 336.512 242.399 341.516 241.105 340.843C239.811 340.17 232.565 329.922 231.651 328.093C231.387 327.513 231.25 326.884 231.25 326.247C231.25 325.61 231.387 324.98 231.651 324.401L224.163 315.775L227.734 310.426Z" fill="#B97964"/>
<path d="M214.52 224.525C220.886 227.976 221.421 241.675 221.421 241.675C221.421 241.675 206.808 270.021 205.893 274.455C204.979 278.888 232.911 314.877 232.911 314.877L226.355 320.985C226.355 320.985 192.678 284.892 189.038 276.128C185.397 267.364 214.52 224.525 214.52 224.525Z" fill="#407BFF"/>
<path opacity="0.7" d="M214.52 224.525C220.886 227.976 221.421 241.675 221.421 241.675C221.421 241.675 206.808 270.021 205.893 274.455C204.979 278.888 232.911 314.877 232.911 314.877L226.355 320.985C226.355 320.985 192.678 284.892 189.038 276.128C185.397 267.364 214.52 224.525 214.52 224.525Z" fill="white"/>
<path d="M294.088 296.227C294.088 297.121 293.823 297.995 293.326 298.739C292.83 299.482 292.124 300.061 291.298 300.404C290.472 300.746 289.563 300.835 288.686 300.661C287.809 300.486 287.004 300.056 286.372 299.424C285.74 298.792 285.309 297.986 285.135 297.109C284.96 296.232 285.05 295.324 285.392 294.498C285.734 293.672 286.313 292.966 287.057 292.469C287.8 291.972 288.674 291.707 289.568 291.707C290.767 291.707 291.917 292.184 292.764 293.031C293.612 293.879 294.088 295.029 294.088 296.227Z" fill="#263238"/>
<g opacity="0.6">
<path opacity="0.6" d="M294.088 296.227C294.088 297.121 293.823 297.995 293.326 298.739C292.83 299.482 292.124 300.061 291.298 300.404C290.472 300.746 289.563 300.835 288.686 300.661C287.809 300.486 287.004 300.056 286.372 299.424C285.74 298.792 285.309 297.986 285.135 297.109C284.96 296.232 285.05 295.324 285.392 294.498C285.734 293.672 286.313 292.966 287.057 292.469C287.8 291.972 288.674 291.707 289.568 291.707C290.767 291.707 291.917 292.184 292.764 293.031C293.612 293.879 294.088 295.029 294.088 296.227Z" fill="white"/>
</g>
<path d="M272.368 258.962C272.498 256.172 272.815 253.394 273.316 250.646C274.938 240.398 276.767 228.77 261.447 222.145C256.823 220.143 252.717 220.178 249.249 222.265C241.399 226.993 239.381 240.657 238.984 244.228C237.618 244.066 236.233 244.222 234.938 244.683C233.642 245.143 232.47 245.897 231.513 246.885C225.906 252.872 228.46 266.656 228.58 267.243C228.601 267.353 228.643 267.459 228.705 267.552C228.767 267.646 228.846 267.727 228.94 267.789C229.033 267.852 229.137 267.895 229.248 267.917C229.358 267.939 229.471 267.938 229.581 267.916C229.805 267.874 230.003 267.745 230.132 267.558C230.262 267.37 230.311 267.139 230.271 266.915C230.271 266.777 227.752 253.424 232.756 248.075C233.642 247.182 234.737 246.524 235.943 246.163C237.148 245.801 238.425 245.747 239.657 246.005C240.951 246.089 242.207 246.48 243.32 247.146C244.433 247.812 245.372 248.734 246.057 249.835C250.388 256.857 245.471 270.849 245.419 270.987C245.347 271.204 245.362 271.441 245.462 271.648C245.562 271.854 245.738 272.013 245.954 272.091C246.051 272.109 246.15 272.109 246.247 272.091C246.423 272.086 246.594 272.03 246.738 271.928C246.882 271.827 246.994 271.686 247.058 271.522C247.265 270.918 252.234 256.615 247.524 248.886C246.774 247.676 245.767 246.645 244.574 245.867C243.382 245.089 242.033 244.582 240.623 244.383C241.02 241.054 242.986 227.959 250.06 223.68C253.027 221.955 256.599 221.955 260.688 223.68C274.783 229.77 273.144 240.225 271.539 250.318C271.026 253.169 270.704 256.051 270.573 258.945C270.366 272.747 274.8 295.02 287.636 295.486V293.76C275.732 293.295 272.195 270.124 272.368 258.962Z" fill="#263238"/>
<path opacity="0.2" d="M272.368 258.962C272.498 256.172 272.815 253.394 273.316 250.646C274.938 240.398 276.767 228.77 261.447 222.145C256.823 220.143 252.717 220.178 249.249 222.265C241.399 226.993 239.381 240.657 238.984 244.228C237.618 244.066 236.233 244.222 234.938 244.683C233.642 245.143 232.47 245.897 231.513 246.885C225.906 252.872 228.46 266.656 228.58 267.243C228.601 267.353 228.643 267.459 228.705 267.552C228.767 267.646 228.846 267.727 228.94 267.789C229.033 267.852 229.137 267.895 229.248 267.917C229.358 267.939 229.471 267.938 229.581 267.916C229.805 267.874 230.003 267.745 230.132 267.558C230.262 267.37 230.311 267.139 230.271 266.915C230.271 266.777 227.752 253.424 232.756 248.075C233.642 247.182 234.737 246.524 235.943 246.163C237.148 245.801 238.425 245.747 239.657 246.005C240.951 246.089 242.207 246.48 243.32 247.146C244.433 247.812 245.372 248.734 246.057 249.835C250.388 256.857 245.471 270.849 245.419 270.987C245.347 271.204 245.362 271.441 245.462 271.648C245.562 271.854 245.738 272.013 245.954 272.091C246.051 272.109 246.15 272.109 246.247 272.091C246.423 272.086 246.594 272.03 246.738 271.928C246.882 271.827 246.994 271.686 247.058 271.522C247.265 270.918 252.234 256.615 247.524 248.886C246.774 247.676 245.767 246.645 244.574 245.867C243.382 245.089 242.033 244.582 240.623 244.383C241.02 241.054 242.986 227.959 250.06 223.68C253.027 221.955 256.599 221.955 260.688 223.68C274.783 229.77 273.144 240.225 271.539 250.318C271.026 253.169 270.704 256.051 270.573 258.945C270.366 272.747 274.8 295.02 287.636 295.486V293.76C275.732 293.295 272.195 270.124 272.368 258.962Z" fill="white"/>
<path d="M247.179 269.952L244.798 269.469C244.798 269.469 243.073 273.264 244.47 273.937C245.867 274.61 247.972 271.936 247.179 269.952Z" fill="#263238"/>
<g opacity="0.6">
<path opacity="0.6" d="M247.179 269.952L244.798 269.469C244.798 269.469 243.073 273.264 244.47 273.937C245.867 274.61 247.972 271.936 247.179 269.952Z" fill="white"/>
</g>
<path d="M229.046 265.69H231.462C231.462 265.69 232.497 269.779 230.892 270.124C229.288 270.469 227.856 267.415 229.046 265.69Z" fill="#263238"/>
<g opacity="0.6">
<path opacity="0.6" d="M229.046 265.69H231.462C231.462 265.69 232.497 269.779 230.892 270.124C229.288 270.469 227.856 267.415 229.046 265.69Z" fill="white"/>
</g>
<path d="M288.585 296.78C289.986 296.78 291.121 295.644 291.121 294.243C291.121 292.843 289.986 291.707 288.585 291.707C287.184 291.707 286.049 292.843 286.049 294.243C286.049 295.644 287.184 296.78 288.585 296.78Z" fill="#263238"/>
<g opacity="0.7">
<path opacity="0.7" d="M288.585 296.78C289.986 296.78 291.121 295.644 291.121 294.243C291.121 292.843 289.986 291.707 288.585 291.707C287.184 291.707 286.049 292.843 286.049 294.243C286.049 295.644 287.184 296.78 288.585 296.78Z" fill="white"/>
</g>
<path d="M254.615 244.987C245.471 234.636 246.264 227.476 246.264 227.476C258.221 227.079 262.206 211.604 262.206 211.604L272.557 224.836C270.749 226.312 269.048 227.915 267.468 229.633C260.757 237.068 264.017 240.139 264.017 240.139C262.672 246.195 254.615 244.987 254.615 244.987Z" fill="#B97964"/>
<path opacity="0.2" d="M272.592 224.905C270.784 226.381 269.083 227.984 267.502 229.701C262.758 223.059 262.24 211.672 262.24 211.672L272.592 224.905Z" fill="black"/>
<path d="M283.841 176.08C297.798 179.531 300.489 188.053 298.005 202.701C294.899 221.006 287.791 232.824 271.263 224.733C248.8 213.725 260.636 170.438 283.841 176.08Z" fill="#B97964"/>
<path d="M289.155 199.733C289.769 202.091 290.661 204.367 291.812 206.514C291.261 206.99 290.589 207.305 289.871 207.424C289.152 207.543 288.415 207.461 287.74 207.187L289.155 199.733Z" fill="#A24E3F"/>
<path d="M280.89 196.507C280.632 197.663 279.804 198.457 279.027 198.232C278.251 198.008 277.837 196.99 278.096 195.834C278.354 194.678 279.182 193.885 279.942 194.109C280.701 194.333 281.218 195.351 280.89 196.507Z" fill="#263238"/>
<path d="M279.613 194.092L282.339 193.66C282.339 193.66 280.631 195.489 279.613 194.092Z" fill="#263238"/>
<path d="M295.279 199.406C295.037 200.562 294.209 201.355 293.433 201.131C292.656 200.907 292.242 199.889 292.501 198.733C292.76 197.577 293.588 196.783 294.347 197.008C295.106 197.232 295.537 198.25 295.279 199.406Z" fill="#263238"/>
<path d="M294.02 196.99L296.745 196.559C296.745 196.559 295.02 198.405 294.02 196.99Z" fill="#263238"/>
<path d="M276.525 188.053C276.427 188.054 276.33 188.031 276.243 187.986C276.156 187.941 276.081 187.875 276.025 187.794C275.927 187.661 275.885 187.494 275.907 187.33C275.93 187.166 276.015 187.017 276.146 186.914C277.204 186.246 278.405 185.834 279.651 185.711C280.897 185.588 282.154 185.758 283.323 186.207C283.467 186.273 283.58 186.392 283.639 186.538C283.699 186.685 283.7 186.849 283.643 186.996C283.585 187.144 283.474 187.264 283.331 187.332C283.188 187.4 283.025 187.411 282.874 187.363C281.902 187 280.86 186.861 279.827 186.957C278.793 187.053 277.794 187.38 276.905 187.915C276.795 187.998 276.663 188.046 276.525 188.053Z" fill="#263238"/>
<path d="M298.678 191.832C298.593 191.832 298.509 191.814 298.431 191.778C298.354 191.742 298.285 191.69 298.23 191.625C297.659 190.909 296.935 190.331 296.111 189.934C295.286 189.537 294.383 189.33 293.468 189.33C293.305 189.341 293.144 189.29 293.016 189.188C292.888 189.086 292.803 188.94 292.778 188.778C292.758 188.616 292.804 188.452 292.904 188.323C293.004 188.194 293.151 188.11 293.313 188.088C294.426 188.06 295.531 188.288 296.542 188.754C297.553 189.221 298.444 189.914 299.144 190.779C299.257 190.898 299.32 191.056 299.32 191.219C299.32 191.383 299.257 191.541 299.144 191.659C299.083 191.719 299.01 191.766 298.93 191.796C298.849 191.825 298.764 191.838 298.678 191.832Z" fill="#263238"/>
<path d="M262.827 195.903C262.827 195.903 272.161 186.018 273.334 176.925C273.334 176.925 303.767 172.354 298.298 200.786C298.298 200.786 307.08 176.494 283.185 170.093C259.29 163.693 250.854 198.836 260.757 212.328C260.705 212.328 257.065 202.097 262.827 195.903Z" fill="#263238"/>
<path d="M264.397 199.423C264.656 197.781 264.259 196.104 263.29 194.754C262.321 193.404 260.859 192.49 259.221 192.211C254.77 191.625 250.594 200.009 260.791 204.771C262.24 205.461 263.448 204.15 264.397 199.423Z" fill="#B97964"/>
<path d="M306.701 207.031C303.078 203.581 303.63 197.715 306.476 191.763C309.323 185.81 301.956 181.411 301.956 181.411C301.956 181.411 301.37 173.923 295.607 170.921C294.572 170.369 289.776 170.921 289.776 170.921C283.496 164.02 273.403 158.344 265.484 167.333C260.809 172.647 256.168 167.212 248.766 178.254C243.418 186.242 247.145 193.264 245.592 195.834C238.415 207.635 247.748 210.827 249.991 214.933C249.991 214.933 254.926 212.587 254.512 211.172C251.061 199.871 257.013 192.539 261.568 194.333C266.123 196.128 269.366 195.662 272.661 191.504C275.957 187.346 273.662 182.877 281.288 181.842C288.913 180.807 289.69 176.442 289.69 176.442C289.812 178.383 290.459 180.254 291.562 181.855C292.665 183.457 294.183 184.729 295.952 185.534C302.319 188.864 299.817 192.884 298.92 198.56C298.023 204.236 300.835 206.427 305.821 210.533C310.807 214.64 305.545 217.642 305.545 217.642C306.491 217.163 307.303 216.456 307.906 215.584C308.51 214.713 308.886 213.704 309.001 212.65C309.116 211.596 308.965 210.53 308.564 209.549C308.162 208.568 307.522 207.702 306.701 207.031Z" fill="#263238"/>
<path d="M286.687 213.518C285.452 214.636 284.299 215.841 283.237 217.124L282.478 216.676C279.027 214.623 278.165 212.552 278.182 210.862C278.226 210.044 278.456 209.247 278.855 208.532C279.074 208.119 279.346 207.736 279.666 207.394C281.212 209.597 283.212 211.444 285.532 212.811L286.687 213.518Z" fill="#263238"/>
<path d="M285.531 212.811L284.496 213.846C281.287 211.897 279.32 210.102 278.854 208.532C279.073 208.119 279.346 207.736 279.665 207.394C281.212 209.597 283.212 211.444 285.531 212.811Z" fill="white"/>
<path d="M282.478 216.676C279.027 214.623 278.165 212.552 278.182 210.862C279.468 211.668 280.602 212.696 281.529 213.898C282.13 214.701 282.462 215.673 282.478 216.676Z" fill="#DE5753"/>
</svg>
